<svg width="21" height="21" viewBox="0 0 21 21" fill="none" xmlns="http://www.w3.org/2000/svg">
<path d="M7.62188 1.33618C9.60224 1.40783 11.2862 2.98152 12.7021 5.91364C12.8714 6.26426 13.0711 6.60039 13.315 6.9039C14.5436 8.4328 15.7618 9.82106 16.9485 10.7853C18.2451 11.8388 18.9707 13.4861 18.7844 15.1463C18.4847 17.8174 16.3086 19.8533 13.2645 19.648C9.76702 19.4122 7.02331 17.5661 4.9145 14.3637C2.66611 11.1701 1.67259 8.13303 2.44614 5.3162C2.67406 4.48621 3.08973 3.70882 3.67017 3.07328C4.71766 1.92635 6.04675 1.37227 7.62188 1.33618Z" fill="#D2448D"/>
<path d="M18.237 16.9619C17.3274 18.7409 15.512 19.8005 13.2635 19.6497C9.76717 19.4137 7.02259 17.565 4.91607 14.3615C2.66531 11.1711 1.67323 8.13374 2.44679 5.31484C2.67406 4.48446 3.08925 3.7109 3.67049 3.07284C4.08569 2.6183 4.54457 2.25995 5.04717 1.98462C4.84175 2.36047 4.68005 2.76253 4.56644 3.17772C3.79288 5.99225 4.78496 9.02966 7.03569 12.2244C9.14221 15.4279 11.8868 17.2722 15.3875 17.5082C16.3708 17.5737 17.3673 17.4033 18.237 16.9619Z" fill="#B8348C"/>
<path d="M17.9748 17.4164C16.8894 19.0624 15.1623 19.7771 13.2635 19.6497C9.76717 19.4137 7.02259 17.565 4.91607 14.3615C2.66531 11.1711 1.67323 8.13374 2.44679 5.31484C2.67406 4.48446 3.08925 3.71089 3.67049 3.07283C3.89339 2.82809 4.12941 2.61395 4.37849 2.42603C4.05072 2.91551 3.80598 3.4618 3.64865 4.03432C2.87508 6.84884 3.86717 9.88623 6.11792 13.081C8.22445 16.2845 10.969 18.1288 14.4653 18.3648C15.7153 18.4478 16.9783 18.155 17.9748 17.4164Z" fill="#C01596"/>
<path d="M12.8509 10.0943C12.0943 9.65206 11.1091 8.87624 10.7113 7.69141C10.5066 7.08136 10.5015 6.51685 10.5266 5.99766C10.5398 5.70463 10.6535 5.37289 10.9309 5.25635L10.9934 5.22996C10.9934 5.22996 11.1264 5.21448 11.129 5.2146C11.4292 5.22805 11.6388 5.39153 11.7178 5.63232C12.0169 6.54091 11.9503 6.36887 12.2196 6.93526C13.036 8.65333 14.1649 8.87662 14.5191 9.2581C15.1033 9.89471 14.4064 11.0039 12.8509 10.0943Z" fill="#B8348C"/>
<path d="M11.3586 5.74991C11.5119 6.21442 11.7602 7.03914 12.2374 7.74376C13.1006 9.0184 14.0213 9.27632 14.2418 9.5151C14.4461 9.73626 14.351 10.0281 13.9752 10.0591C13.6451 10.0863 13.3278 9.93525 13.0419 9.76814C12.1735 9.26064 11.3897 8.52466 11.0699 7.57108C10.8961 7.05314 10.8781 6.56139 10.9042 6.01571C10.9122 5.84752 10.9697 5.60041 11.1383 5.59184C11.2403 5.58665 11.3266 5.6529 11.3586 5.74991Z" fill="#FFDE9B"/>
<g opacity="0.2">
<path d="M9.61459 3.13569C9.46487 3.52122 8.74573 3.60674 8.00665 3.31973C7.27551 3.0358 6.79461 2.48427 6.94432 2.09874C7.09402 1.71327 7.82111 1.63084 8.55224 1.91476C9.29133 2.20178 9.76428 2.75022 9.61459 3.13569Z" fill="white"/>
</g>
<g opacity="0.2">
<path d="M8.85066 3.29905C7.55932 3.29905 6.34499 1.93677 7.7108 1.93677C8.2788 1.93677 8.94411 2.23472 9.27256 2.61334C9.64148 3.03844 9.40767 3.29905 8.85066 3.29905Z" fill="white"/>
</g>
<path d="M9.70252 5.28851C9.3093 5.28851 8.99115 5.60666 8.99115 5.99988C8.99115 5.6066 8.67313 5.28851 8.27979 5.28851C8.67306 5.28851 8.99115 4.97048 8.99115 4.57715C8.99115 4.77341 9.07103 4.95176 9.19912 5.08054C9.32789 5.20863 9.50625 5.28851 9.70252 5.28851Z" fill="white"/>
</svg>
