<svg width="64" height="64" viewBox="0 0 64 64" fill="none" xmlns="http://www.w3.org/2000/svg">
<path d="M57.7 18.0999C55.84 8.91994 45.72 3.54994 37.07 7.15994C31.51 9.48994 27.79 15.0699 27.79 21.1099V36.2099H42.89C52.31 36.2099 59.57 27.3199 57.7 18.0999ZM53.5 21.1399C53.5 24.3599 48.5 24.3599 48.5 21.1399C48.5 17.9199 53.5 17.9199 53.5 21.1399ZM32.29 21.1399C32.29 17.9199 37.29 17.9199 37.29 21.1399C37.29 24.3599 32.29 24.3599 32.29 21.1399ZM40.39 21.1099C40.39 17.8799 45.39 17.8799 45.39 21.1099C45.39 24.3299 40.39 24.3299 40.39 21.1099Z" fill="#BD67FF"/>
<path d="M36.5004 57.8497C38.4904 58.3097 40.5904 57.7197 42.0504 56.2797C43.2204 55.1297 44.3004 53.8797 45.2704 52.5497C46.3304 51.0997 45.8404 48.9697 44.2504 48.1297L38.4304 45.0597C36.5204 44.0497 34.2104 44.1497 32.3804 45.3197L28.0704 48.0897C23.0504 45.1297 18.8704 40.9497 15.9104 35.9297L18.6804 31.6197C19.8504 29.7897 19.9504 27.4797 18.9404 25.5697L15.8704 19.7497C15.0304 18.1497 12.9104 17.6697 11.4504 18.7297C10.1204 19.6997 8.87038 20.7797 7.72038 21.9497C6.28038 23.4097 5.69038 25.5097 6.15038 27.4997C9.63038 42.5897 21.4104 54.3697 36.5004 57.8497Z" fill="#BD67FF"/>
</svg>
