<svg width="21" height="21" viewBox="0 0 21 21" fill="none" xmlns="http://www.w3.org/2000/svg">
<path d="M15.2926 11.7757C14.5222 11.0082 13.1782 11.0075 12.4058 11.7757L11.3225 12.8541C10.9353 13.2389 10.2616 13.2389 9.87576 12.8541L6.625 9.61861C6.22653 9.22163 6.22653 8.57552 6.625 8.17854L7.16619 7.63967C7.16602 7.63983 7.16635 7.6395 7.16619 7.63967C7.16635 7.6395 7.16685 7.63901 7.16702 7.63884L7.70837 7.09981C8.09424 6.71603 8.30641 6.20587 8.30641 5.66304C8.30641 5.12021 8.09424 4.61004 7.70837 4.22627L6.08332 2.60833C5.3129 1.84078 3.96698 1.84078 3.19656 2.60833L2.11319 3.68707C1.14851 4.647 0.617432 5.9234 0.617432 7.28064C0.617432 8.63822 1.14851 9.91461 2.11319 10.8745L8.61405 17.3456C9.57807 18.3056 10.8603 18.8342 12.2242 18.8342C13.588 18.8342 14.8702 18.3056 15.8343 17.3456L16.3756 16.8071C16.3759 16.8068 16.3763 16.8067 16.3766 16.8064C16.3769 16.8061 16.377 16.8057 16.3773 16.8054L16.9183 16.2672C17.7139 15.4749 17.7139 14.1857 16.9183 13.3934L15.2926 11.7757ZM14.5726 12.4925L16.1983 14.1101C16.5967 14.5071 16.5967 15.1535 16.1983 15.5505L16.0165 15.7313L12.9442 12.6733L13.1259 12.4925C13.5131 12.1077 14.1867 12.1077 14.5726 12.4925ZM4.63994 3.02676C4.9131 3.02676 5.17035 3.13269 5.36329 3.32507L6.98833 4.943C7.18194 5.13539 7.28802 5.39113 7.28802 5.66304C7.28802 5.93495 7.18194 6.19069 6.98833 6.38307L6.80654 6.56407L3.73476 3.50611L3.91659 3.32507C4.10953 3.13269 4.36678 3.02676 4.63994 3.02676ZM12.2242 17.8205C11.1322 17.8205 10.1058 17.3974 9.33408 16.6289L2.83323 10.1578C2.06081 9.38927 1.63582 8.36762 1.63582 7.28064C1.63582 6.19399 2.06081 5.17235 2.83323 4.4038L3.01485 4.22297L6.08664 7.28093L5.90497 7.46181C5.10935 8.25411 5.10935 9.54304 5.90497 10.3353L9.15573 13.5709C9.92549 14.3378 11.2701 14.3384 12.0425 13.5709L12.2242 13.3901L15.2963 16.4478L15.1142 16.6289C14.3425 17.3974 13.3161 17.8205 12.2242 17.8205ZM16.8825 4.12166C16.8951 4.40149 16.677 4.63809 16.3958 4.6503L11.8031 4.84929C11.7959 4.84962 11.7886 4.84962 11.7806 4.84962C11.5101 4.84962 11.2847 4.6371 11.2727 4.36486C11.2601 4.08503 11.4783 3.84843 11.7594 3.83622L16.3521 3.63724C16.606 3.62239 16.8699 3.8415 16.8825 4.12166ZM14.6859 6.50682C14.6985 6.78665 14.4804 7.02325 14.1993 7.03546L11.9033 7.13479C11.896 7.13512 11.8887 7.13512 11.8807 7.13512C11.6102 7.13512 11.3848 6.92227 11.3728 6.65036C11.3603 6.37053 11.5784 6.13393 11.8595 6.12172L14.1555 6.0224C14.4134 6.01316 14.6733 6.22666 14.6859 6.50682ZM19.1619 3.64153C19.1387 3.10101 18.904 2.60074 18.5009 2.23314C18.0978 1.86586 17.572 1.68074 17.0343 1.69955L10.9107 1.96453C9.78625 2.01303 8.91108 2.9634 8.96014 4.08305L9.09341 7.1305C9.13451 8.07525 9.82073 8.84314 10.7098 9.03057L10.7907 10.8739C10.7987 11.0656 10.9154 11.2362 11.0917 11.3144C11.158 11.3441 11.229 11.3586 11.2993 11.3586C11.4146 11.3586 11.5293 11.3194 11.6221 11.2438L14.4525 8.93256L17.3446 8.80783C18.4691 8.75866 19.3443 7.80829 19.2952 6.68897L19.1619 3.64153ZM17.3002 7.79476L14.2391 7.92709C14.129 7.93204 14.0229 7.9723 13.938 8.0416L11.7634 9.81693L11.7077 8.54417C11.6957 8.27193 11.4703 8.05942 11.1998 8.05942C11.1918 8.05942 11.1846 8.05942 11.1773 8.05975C10.6091 8.0736 10.135 7.64792 10.1105 7.08661L9.9772 4.03916C9.95267 3.47785 10.3916 3.00168 10.9545 2.97759L17.0781 2.71261C17.6324 2.67928 18.1203 3.12411 18.1449 3.68542L18.2781 6.73286C18.3027 7.29417 17.8638 7.77035 17.3002 7.79476Z" fill="white"/>
</svg>
