<svg width="683" height="683" viewBox="0 0 683 683" fill="none" xmlns="http://www.w3.org/2000/svg">
<g clip-path="url(#clip0_276_1691)">
<path d="M682.667 462C682.667 377.286 634.068 301.682 561.281 264.906C559.021 427.333 427.333 559.021 264.906 561.281C301.682 634.068 377.286 682.667 462 682.667C501.719 682.667 540.344 672.089 574.281 651.99L681.703 681.703L651.99 574.281C672.089 540.344 682.667 501.719 682.667 462Z" fill="#BD67FF"/>
<path d="M521.333 260.667C521.333 116.932 404.401 0 260.667 0C116.932 0 0 116.932 0 260.667C0 307.51 12.4688 353.12 36.1458 393.162L0.958333 520.37L128.172 485.188C168.214 508.865 213.823 521.333 260.667 521.333C404.401 521.333 521.333 404.401 521.333 260.667ZM220.667 200H180.667C180.667 155.885 216.552 120 260.667 120C304.781 120 340.667 155.885 340.667 200C340.667 222.391 331.188 243.911 314.651 259.036L280.667 290.141V321.333H240.667V272.526L287.646 229.526C296.042 221.844 300.667 211.359 300.667 200C300.667 177.943 282.724 160 260.667 160C238.609 160 220.667 177.943 220.667 200ZM240.667 361.333H280.667V401.333H240.667V361.333Z" fill="#BD67FF"/>
</g>
<defs>
<clipPath id="clip0_276_1691">
<rect width="682.667" height="682.667" fill="white"/>
</clipPath>
</defs>
</svg>
