<svg width="24" height="20" viewBox="0 0 24 20" fill="none" xmlns="http://www.w3.org/2000/svg">
<path d="M23.5077 8.41561C19.867 5.70498 16.2285 2.99134 12.5886 0.279209C12.0977 -0.0861755 11.882 -0.0937092 11.4051 0.261128C7.74535 2.98758 4.08706 5.71628 0.429506 8.4465C-0.0129221 8.77648 -0.122979 9.24884 0.143359 9.60669C0.436843 10.0015 0.869733 10.0339 1.33124 9.69333C1.76046 9.37691 2.18821 9.05824 2.65999 8.70867C2.65999 8.91284 2.65999 9.04844 2.65999 9.18405C2.65999 12.471 2.66293 15.758 2.65632 19.0449C2.65559 19.4969 2.81334 19.8126 3.23449 19.9708C5.38133 19.9693 7.5289 19.9685 9.67574 19.967C9.67061 19.9761 9.66767 19.9851 9.6662 19.9942C10.0529 19.9437 10.24 19.6853 10.3243 19.3184C10.375 19.0969 10.3706 18.8716 10.3706 18.6471C10.3713 16.6613 10.3698 14.6746 10.3713 12.6887C10.372 12.1433 10.3882 12.1282 10.9304 12.1275C11.6612 12.126 12.3912 12.126 13.122 12.1275C13.6349 12.129 13.6525 12.1448 13.6525 12.6767C13.6539 14.588 13.6525 16.4993 13.6532 18.4106C13.6532 18.6976 13.6385 18.9862 13.6642 19.2724C13.7082 19.7546 13.9555 19.9964 14.4236 19.9972C16.4934 20.0009 18.5632 20.0009 20.633 19.9972C21.0762 19.9964 21.3308 19.7553 21.3931 19.3048C21.4173 19.1316 21.4085 18.9553 21.4085 18.7805C21.4085 15.6947 21.4085 12.6096 21.4085 9.52382C21.4085 9.42362 21.4093 9.32418 21.4085 9.22398C21.4071 9.01002 21.487 8.98968 21.647 9.10645C21.9647 9.33774 22.2699 9.5871 22.5949 9.80709C23.2685 10.2636 23.8459 10.0248 24 9.23528C24 9.18556 24 9.13508 24 9.08536C23.8995 8.81414 23.7425 8.59039 23.5077 8.41561ZM19.4906 18.4445C18.1875 18.4354 16.8837 18.4302 15.5807 18.4475C15.293 18.4513 15.2439 18.3533 15.2453 18.0851C15.2556 15.8732 15.2512 13.6613 15.2505 11.4494C15.2505 10.7292 14.9841 10.4557 14.2857 10.455C12.7507 10.455 11.2158 10.4542 9.68161 10.455C8.99046 10.455 8.71531 10.7337 8.71458 11.4502C8.71238 13.6621 8.70944 15.874 8.71972 18.0859C8.72118 18.3533 8.67496 18.4513 8.38588 18.4475C7.08281 18.4302 5.779 18.4324 4.47593 18.446C4.22647 18.4482 4.17731 18.3654 4.17877 18.1281C4.18831 16.4036 4.18391 14.6791 4.18391 12.9547C4.18391 11.2551 4.18758 9.55546 4.17951 7.85586C4.17877 7.64793 4.23747 7.52061 4.40476 7.3963C6.86783 5.56712 9.3265 3.73191 11.7808 1.89067C11.9326 1.77691 12.031 1.77088 12.1836 1.8854C14.6584 3.74019 17.1369 5.58972 19.6175 7.43548C19.7415 7.52739 19.7841 7.62457 19.7841 7.77525C19.7812 11.237 19.779 14.698 19.787 18.1597C19.787 18.403 19.7041 18.446 19.4906 18.4445Z" fill="#EFF8FF"/>
</svg>
