<svg width="91" height="91" viewBox="0 0 91 91" fill="none" xmlns="http://www.w3.org/2000/svg">
<mask id="mask0_205_2599" style="mask-type:luminance" maskUnits="userSpaceOnUse" x="0" y="0" width="91" height="91">
<path d="M91 0H0V91H91V0Z" fill="white"/>
</mask>
<g mask="url(#mask0_205_2599)">
<path d="M29 11.2271C29 11.2271 33.585 10.1057 42.768 10.0001C45.1064 9.97371 50.3212 14.4379 51 28.127C50.0308 29.4482 44.3128 33.0839 36.85 59C36.85 59 40.7265 11.652 29 11.2271Z" fill="url(#paint0_linear_205_2599)"/>
<path d="M28.8644 12C28.8644 12 22.2673 14.2072 15.6702 30.7368C9.07307 47.2664 6.47109 61.7864 8.88745 69.5537C12.4186 71.497 12.9754 71.6844 20.2233 73C19.2013 68.5856 16.9706 66.0507 22.0817 46.4211C24.4053 39.283 31.1929 24.1165 35 20.4299C35 20.4299 33.79 12.1413 28.8644 12.0013V12Z" fill="url(#paint1_linear_205_2599)"/>
<path d="M37 59L50.9267 57.9419C50.9267 57.9419 53.0199 47.4248 55.3363 42.3357C57.6533 37.2466 61 32.1575 61 32.1575C61 32.1575 59.7132 22.3195 53.9634 25.7115C52.5905 26.3906 44.3653 31.334 37 58.9975V59Z" fill="url(#paint2_linear_205_2599)"/>
<path d="M55.0025 25.5638C55.0025 25.5638 60.3172 24.5841 67.0341 25.2076C69.5325 25.5638 69.9237 30.5139 70.158 32.7761C70.3928 35.0395 71.1732 51.0357 75 50.255C73.9064 51.738 72.0315 54 68.3605 54C64.6895 54 61.9563 50.8012 61.175 45.1819C60.3936 39.5639 61.4006 25.6056 55 25.5625L55.0025 25.5638Z" fill="url(#paint3_linear_205_2599)"/>
<path d="M75.0881 50.2462C75.0881 50.2462 75.9586 49.1651 76.1798 44.7772C78.278 44.3885 83.9125 43 83.9125 43C83.9125 43 86.0665 53.0599 69 54C69 54 73.0021 53.6036 75.0881 50.2462Z" fill="url(#paint4_linear_205_2599)"/>
<path d="M9.59933 68.999C9.41474 68.999 9.24788 68.9297 9.20655 68.8288C9.20358 68.8202 9.12086 68.6141 9.00571 68.2528C8.96876 68.1353 9.11499 68.0229 9.33356 68.0031C9.55504 67.9832 9.76032 68.0618 9.79721 68.1797C9.90797 68.5304 9.99069 68.7349 9.99069 68.7374C10.038 68.8543 9.90062 68.9697 9.68353 68.9952C9.65549 68.9984 9.6259 69 9.59785 69L9.59933 68.999Z" fill="#E2DCFF"/>
<path d="M9.62991 66.9985C9.46478 66.9985 9.32048 66.8707 9.29966 66.6955C9.22751 66.0871 9.16636 65.4721 9.11984 64.8698C9.10521 64.6793 9.24219 64.5134 9.42564 64.4981C9.61036 64.4828 9.76935 64.6249 9.78404 64.8153C9.82927 65.4084 9.88924 66.0133 9.96017 66.612C9.98217 66.8009 9.85255 66.973 9.67029 66.9975C9.65683 66.9985 9.64214 67 9.62868 67L9.62991 66.9985ZM9.35226 63.3683C9.17367 63.3683 9.02569 63.2212 9.01955 63.0348C9.00609 62.6316 9 62.2309 9 61.8444C9 61.6301 9.00246 61.4147 9.00609 61.1963C9.00977 61.0064 9.16758 60.8526 9.34494 60.8577C9.52839 60.8618 9.6752 61.0191 9.67151 61.209C9.66783 61.4224 9.66537 61.6337 9.66537 61.8429C9.66537 62.2232 9.67151 62.6163 9.68497 63.0109C9.69106 63.2008 9.54676 63.3607 9.36326 63.3673C9.35958 63.3673 9.35594 63.3673 9.35226 63.3673V63.3683ZM9.42564 59.7295C9.41709 59.7295 9.40732 59.7295 9.3975 59.7295C9.21405 59.7142 9.07829 59.5467 9.09298 59.3578C9.13698 58.7927 9.19813 58.2382 9.27397 57.7097L9.30088 57.5269C9.3278 57.338 9.49784 57.2062 9.67883 57.2367C9.8611 57.2647 9.98586 57.4394 9.95894 57.6283L9.93202 57.8121C9.85865 58.3248 9.79872 58.8634 9.75589 59.4148C9.74121 59.5951 9.59568 59.732 9.42441 59.732L9.42564 59.7295ZM9.90393 56.1207C9.88556 56.1207 9.86719 56.1197 9.84887 56.1156C9.66783 56.0856 9.5443 55.9063 9.57485 55.719C9.66297 55.165 9.76203 54.5637 9.87579 53.9187C9.90879 53.7308 10.0825 53.6066 10.2623 53.6407C10.4433 53.6748 10.5632 53.855 10.5302 54.0414C10.4176 54.6829 10.3186 55.2816 10.2317 55.832C10.2048 56.0005 10.0629 56.1207 9.90393 56.1207ZM10.5314 52.5353C10.5094 52.5353 10.4886 52.5328 10.4666 52.5287C10.2867 52.492 10.1694 52.3093 10.2048 52.1229C10.3186 51.5298 10.4384 50.9275 10.5632 50.334C10.6023 50.1476 10.7797 50.0284 10.9583 50.069C11.1381 50.1096 11.2518 50.2934 11.2139 50.4786C11.0855 51.096 10.9668 51.6896 10.8592 52.2573C10.8274 52.4223 10.6892 52.5353 10.5326 52.5353H10.5314ZM11.2738 48.9735C11.2494 48.9735 11.2237 48.971 11.198 48.9646C11.0195 48.9216 10.9081 48.7352 10.9497 48.55C11.0794 47.9744 11.2176 47.3823 11.3643 46.7736C11.4096 46.5885 11.5894 46.477 11.768 46.5226C11.9466 46.5695 12.0542 46.7559 12.0102 46.941C11.8646 47.5458 11.7264 48.1341 11.598 48.706C11.5625 48.8657 11.4255 48.9723 11.2738 48.9723V48.9735ZM12.1276 45.4397C12.0995 45.4397 12.0701 45.436 12.0408 45.4283C11.8634 45.3789 11.7582 45.19 11.8059 45.0049C11.9552 44.4292 12.1117 43.8422 12.2768 43.2437C12.327 43.0611 12.5117 42.9546 12.6891 43.0066C12.8652 43.0586 12.9679 43.25 12.9178 43.4339C12.7539 44.0286 12.5973 44.6118 12.4493 45.1837C12.4089 45.3383 12.2744 45.4397 12.1276 45.4397ZM13.0951 41.9377C13.0633 41.9377 13.0303 41.9326 12.9985 41.9225C12.8224 41.8667 12.7233 41.674 12.7771 41.4914C12.9471 40.912 13.1245 40.3249 13.3043 39.748C13.3606 39.5667 13.5477 39.4678 13.7238 39.5261C13.8987 39.5844 13.9954 39.7797 13.9379 39.961C13.7593 40.5354 13.5832 41.1174 13.4132 41.6943C13.3691 41.8426 13.237 41.939 13.0951 41.939V41.9377ZM14.1752 38.4712C14.1397 38.4712 14.103 38.4648 14.0675 38.4522C13.8939 38.39 13.8009 38.1948 13.8596 38.0135C14.0468 37.4442 14.2437 36.8647 14.443 36.2891C14.5054 36.109 14.6962 36.0165 14.8687 36.0811C15.0412 36.1458 15.1317 36.3436 15.0693 36.5224C14.8699 37.0942 14.6754 37.6699 14.4895 38.2354C14.4419 38.3786 14.3134 38.4686 14.174 38.4686L14.1752 38.4712ZM15.3666 35.044C15.3274 35.044 15.287 35.0363 15.2479 35.0211C15.0754 34.9527 14.9898 34.7536 15.0546 34.5761C15.2626 34.0081 15.4791 33.4349 15.6956 32.8732C15.7641 32.6957 15.9586 32.6095 16.1285 32.6805C16.2998 32.7515 16.3817 32.9519 16.3145 33.1294C16.0992 33.6873 15.8852 34.2566 15.6784 34.8208C15.6283 34.959 15.5011 35.0427 15.3677 35.0427L15.3666 35.044ZM16.6728 31.6624C16.6301 31.6624 16.586 31.6535 16.5445 31.6357C16.3744 31.5622 16.2949 31.3593 16.3671 31.1831C16.5934 30.6252 16.8282 30.0597 17.0655 29.5056C17.1401 29.3307 17.3358 29.252 17.5046 29.3294C17.6734 29.4067 17.7493 29.6108 17.6746 29.7846C17.4398 30.3361 17.2061 30.8965 16.9811 31.4506C16.9273 31.5825 16.8037 31.6624 16.6741 31.6624H16.6728ZM18.0929 28.3315C18.0465 28.3315 17.9988 28.3213 17.9535 28.2998C17.7872 28.2199 17.7138 28.0145 17.7921 27.8421C18.0379 27.2931 18.2923 26.7377 18.548 26.1912C18.6275 26.02 18.8269 25.9478 18.9932 26.0315C19.1583 26.1151 19.2268 26.3218 19.1473 26.493C18.8929 27.0357 18.6397 27.5872 18.3963 28.1324C18.34 28.2579 18.2201 28.3327 18.0942 28.3327L18.0929 28.3315ZM19.6292 25.0551C19.5779 25.0551 19.5265 25.0425 19.4788 25.0171C19.3149 24.9309 19.2501 24.7229 19.3333 24.553C19.5987 24.0116 19.8727 23.4664 20.1478 22.9326C20.2347 22.764 20.4366 22.7006 20.598 22.7906C20.7607 22.8806 20.8218 23.0899 20.735 23.2572C20.4622 23.7872 20.1895 24.3299 19.9265 24.8662C19.8677 24.9854 19.7504 25.0551 19.6292 25.0551ZM21.283 21.8409C21.2279 21.8409 21.1728 21.827 21.1215 21.7965C20.9613 21.704 20.9038 21.4935 20.9931 21.3274C21.0811 21.1638 21.1704 20.999 21.2597 20.8354C21.4664 20.4665 21.6829 20.1013 21.9031 19.745C22.0034 19.5853 22.2089 19.5384 22.363 19.6411C22.5171 19.7437 22.5624 19.958 22.4633 20.1178C22.248 20.4652 22.0376 20.8215 21.837 21.1791C21.7502 21.3376 21.6621 21.5011 21.5741 21.6634C21.5129 21.7762 21.4004 21.8409 21.283 21.8409ZM23.1776 18.7776C23.1091 18.7776 23.0406 18.756 22.9807 18.7104C22.8327 18.5975 22.8009 18.382 22.9097 18.2285C23.2571 17.7392 23.6253 17.251 24.0045 16.7781C24.1219 16.631 24.3323 16.612 24.473 16.7337C24.6148 16.8554 24.6332 17.0735 24.5158 17.2193C24.1452 17.6808 23.7843 18.1588 23.4455 18.6368C23.3807 18.7294 23.2791 18.7776 23.1764 18.7776H23.1776ZM25.4246 15.9793C25.3426 15.9793 25.2607 15.9488 25.1971 15.8854C25.0625 15.7548 25.0564 15.5367 25.1824 15.3973C25.5897 14.9484 26.0129 14.5097 26.4386 14.0938C26.5731 13.9632 26.7835 13.9696 26.9095 14.109C27.0355 14.2485 27.0293 14.4666 26.8948 14.5972C26.4789 15.0029 26.0655 15.4315 25.668 15.8702C25.6019 15.9425 25.5139 15.9793 25.4258 15.9793H25.4246Z" fill="#E2DCFF"/>
<path d="M28.2431 14C28.1725 14 28.1028 13.9311 28.0546 13.7974C27.9697 13.5603 27.9858 13.2138 28.0894 13.0213C28.4147 12.4215 28.6086 12.1114 28.6175 12.0993C28.7274 11.925 28.8794 11.9858 28.9562 12.2371C29.0331 12.4863 29.0063 12.8308 28.8955 13.0051C28.8937 13.0071 28.706 13.305 28.3968 13.8764C28.3513 13.9595 28.2976 14 28.2431 14Z" fill="#E2DCFF"/>
<path d="M17.6994 71C17.6156 71 17.5331 70.9696 17.4668 70.9063C17.4156 70.8572 16.9517 70.3894 16.5554 69.145C16.4978 68.9647 16.5966 68.7719 16.7754 68.7141C16.953 68.6559 17.1455 68.7541 17.203 68.9359C17.5456 70.0102 17.9345 70.4071 17.9382 70.4112C18.0708 70.5433 18.0745 70.7605 17.9445 70.8952C17.877 70.9646 17.7882 71 17.6994 71ZM16.4879 67.5993C16.3203 67.5993 16.1753 67.4758 16.1515 67.3046C16.0715 66.728 16.0202 66.1027 16.0002 65.4446C15.994 65.2557 16.1415 65.0968 16.3303 65.0917C16.5154 65.0831 16.6754 65.234 16.6804 65.4243C16.6991 66.0577 16.7479 66.6576 16.8254 67.21C16.8517 67.3978 16.7217 67.5704 16.5353 67.5968C16.5191 67.5993 16.5029 67.6008 16.4879 67.6008V67.5993ZM16.3591 63.947C16.3591 63.947 16.3478 63.947 16.3428 63.947C16.1552 63.9379 16.0102 63.7769 16.019 63.5875C16.0465 62.9977 16.0952 62.376 16.1628 61.7431C16.1827 61.5538 16.3503 61.4191 16.5379 61.4379C16.7254 61.4581 16.8604 61.6272 16.8405 61.816C16.7742 62.4362 16.7266 63.0443 16.6991 63.6204C16.6904 63.8042 16.5404 63.947 16.3591 63.947ZM16.7404 60.3083C16.7229 60.3083 16.7054 60.3068 16.6879 60.3043C16.5016 60.2754 16.3753 60.1003 16.4041 59.9124C16.4941 59.3287 16.6016 58.7171 16.7217 58.0969C16.7579 57.9101 16.9342 57.7876 17.1205 57.8255C17.3043 57.862 17.4256 58.0422 17.3893 58.228C17.2705 58.8391 17.1655 59.4421 17.0767 60.0167C17.0505 60.1858 16.9055 60.3068 16.7404 60.3068V60.3083ZM17.4318 56.7147C17.4068 56.7147 17.3818 56.7122 17.3568 56.7061C17.173 56.6641 17.058 56.4803 17.0993 56.2961C17.2293 55.7148 17.3681 55.1124 17.5144 54.5069C17.5581 54.3231 17.7419 54.2107 17.9257 54.2547C18.1083 54.2993 18.2208 54.4856 18.1758 54.6699C18.0308 55.2713 17.8932 55.8688 17.7644 56.4474C17.7282 56.6074 17.5881 56.7147 17.4331 56.7147H17.4318ZM18.2883 53.1556C18.2596 53.1556 18.2308 53.1515 18.2033 53.1439C18.0207 53.0964 17.912 52.9095 17.9595 52.7258C18.1095 52.1445 18.2658 51.5517 18.4296 50.9517C18.4796 50.769 18.6672 50.6627 18.8485 50.7123C19.0298 50.7624 19.136 50.9517 19.086 51.1345C18.9222 51.7319 18.7672 52.3197 18.6184 52.8984C18.5784 53.0533 18.4408 53.1556 18.2896 53.1556H18.2883ZM19.2523 49.624C19.2211 49.624 19.1885 49.6202 19.1573 49.6101C18.9773 49.5571 18.8735 49.3667 18.926 49.1852C19.0935 48.6052 19.2673 48.0189 19.4473 47.4263C19.5024 47.2448 19.6937 47.1427 19.8725 47.1981C20.0525 47.2536 20.1538 47.4452 20.0988 47.6268C19.92 48.2169 19.7462 48.7994 19.5799 49.3768C19.5362 49.5269 19.4011 49.624 19.2535 49.624H19.2523ZM20.3163 46.1214C20.2813 46.1214 20.2463 46.1163 20.2126 46.105C20.0338 46.047 19.935 45.8528 19.9925 45.6725C20.1763 45.0951 20.3663 44.5139 20.5626 43.9289C20.6227 43.7498 20.8165 43.6527 20.994 43.7132C21.1716 43.7738 21.2678 43.9692 21.2079 44.1482C21.0128 44.7294 20.824 45.3082 20.6402 45.8831C20.5939 46.0281 20.4601 46.1214 20.3163 46.1214ZM21.4792 42.6516C21.4416 42.6516 21.4029 42.6453 21.3653 42.6315C21.1878 42.5684 21.0953 42.3717 21.1578 42.1927C21.3591 41.619 21.5654 41.0441 21.778 40.4666C21.843 40.2888 22.038 40.1968 22.2156 40.2636C22.3919 40.3292 22.4819 40.5271 22.4169 40.7049C22.2056 41.2786 22.0005 41.8523 21.8005 42.4222C21.7505 42.5634 21.6192 42.6503 21.4792 42.6503V42.6516ZM22.7407 39.2171C22.6994 39.2171 22.6582 39.2096 22.6182 39.1945C22.4431 39.1264 22.3556 38.9271 22.4244 38.7506C22.6432 38.182 22.867 37.6121 23.0958 37.0435C23.1671 36.8682 23.3646 36.7825 23.5385 36.8544C23.7122 36.925 23.796 37.1254 23.726 37.3007C23.4984 37.8668 23.2759 38.4329 23.0583 38.9978C23.0058 39.134 22.877 39.2171 22.7407 39.2171ZM24.1048 35.8256C24.0611 35.8256 24.0161 35.8167 23.9723 35.7978C23.7997 35.7234 23.7185 35.5217 23.7923 35.3477C24.0286 34.7853 24.2711 34.2243 24.5174 33.6632C24.5937 33.4905 24.795 33.4111 24.9663 33.4893C25.1376 33.5662 25.2151 33.7691 25.1388 33.9419C24.8938 34.4979 24.6537 35.0565 24.4187 35.615C24.3637 35.7461 24.2374 35.8243 24.1048 35.8243V35.8256ZM25.579 32.4806C25.5315 32.4806 25.4815 32.4705 25.4352 32.4478C25.2651 32.3684 25.1914 32.1641 25.2701 31.9914C25.5264 31.4354 25.7903 30.8768 26.0553 30.3321C26.1379 30.1619 26.3417 30.0914 26.5105 30.1745C26.6792 30.2578 26.7493 30.4633 26.6667 30.6335C26.4042 31.1744 26.1429 31.7291 25.8878 32.2814C25.8303 32.4062 25.7077 32.4793 25.579 32.4793V32.4806ZM27.1756 29.1886C27.1231 29.1886 27.0706 29.176 27.0206 29.1508C26.8531 29.0638 26.7868 28.857 26.873 28.6893C27.1519 28.1421 27.4382 27.5937 27.7246 27.0603C27.8133 26.8939 28.0209 26.8308 28.1859 26.9216C28.3509 27.0111 28.4134 27.2204 28.3234 27.3869C28.0396 27.9164 27.7558 28.4599 27.4794 29.0033C27.4194 29.1218 27.2994 29.1899 27.1769 29.1899L27.1756 29.1886ZM28.9048 25.9647C28.8473 25.9647 28.7898 25.9496 28.736 25.9193C28.5722 25.826 28.516 25.6154 28.6085 25.4515C28.9123 24.9157 29.2224 24.3811 29.5312 23.8654C29.6275 23.7028 29.8376 23.6511 29.9989 23.7481C30.1602 23.8465 30.2115 24.0571 30.1152 24.2197C29.8088 24.7316 29.5012 25.2599 29.2012 25.792C29.1386 25.9029 29.0236 25.9647 28.9048 25.9647ZM30.7816 22.8303C30.719 22.8303 30.6553 22.8126 30.5978 22.7761C30.439 22.6739 30.3927 22.4621 30.494 22.302C30.8266 21.7788 31.1642 21.2618 31.5005 20.7663C31.6068 20.61 31.8181 20.5696 31.9732 20.6755C32.1282 20.7814 32.1682 20.9958 32.0632 21.1521C31.7318 21.6426 31.3967 22.1532 31.0679 22.6714C31.0029 22.7736 30.8929 22.829 30.7816 22.829V22.8303ZM32.8271 19.8056C32.7571 19.8056 32.6871 19.7842 32.6271 19.74C32.4758 19.629 32.442 19.4135 32.552 19.2609C32.8308 18.8751 33.1122 18.4956 33.3897 18.1337C33.5048 17.9837 33.7186 17.9559 33.8674 18.0707C34.0162 18.1867 34.0437 18.4023 33.9299 18.5523C33.6574 18.9104 33.3785 19.2849 33.1034 19.6656C33.0371 19.7577 32.9334 19.8068 32.8284 19.8068L32.8271 19.8056Z" fill="#E2DCFF"/>
<path d="M37.8624 53C37.851 53 37.8408 53 37.8293 52.999C37.638 52.981 37.4977 52.8115 37.5155 52.6214C37.5155 52.6199 37.5729 52.0086 37.6559 50.9409C37.6711 50.7495 37.8395 50.6028 38.0282 50.622C38.2195 50.6372 38.3623 50.8042 38.347 50.9947C38.2629 52.0701 38.2055 52.6849 38.2055 52.6849C38.1889 52.8647 38.0372 53 37.8599 53H37.8624ZM38.1392 49.466C38.1315 49.466 38.1226 49.466 38.1149 49.466C37.9236 49.4532 37.7795 49.2874 37.7923 49.096C37.8305 48.5334 37.8713 47.9145 37.9122 47.2485C37.9236 47.0571 38.0843 46.9117 38.2794 46.9231C38.4708 46.9347 38.6161 47.0992 38.6047 47.2906C38.5639 47.9592 38.5243 48.5793 38.4848 49.1432C38.472 49.3269 38.3202 49.466 38.1392 49.466ZM38.3636 45.7647C38.3636 45.7647 38.3509 45.7647 38.3445 45.7647C38.1532 45.7545 38.0065 45.5911 38.0167 45.3998C38.0486 44.8077 38.078 44.1902 38.1073 43.551C38.1149 43.3596 38.2769 43.2027 38.4695 43.2193C38.6608 43.2282 38.81 43.3903 38.8011 43.5816C38.773 44.2221 38.7424 44.8422 38.7105 45.4355C38.7003 45.6205 38.5473 45.7647 38.3636 45.7647ZM38.5294 42.0608C38.5294 42.0608 38.5205 42.0608 38.5166 42.0608C38.3254 42.0544 38.1749 41.8924 38.1825 41.701C38.2042 41.0975 38.2246 40.48 38.2412 39.8522C38.2463 39.6609 38.3993 39.5027 38.597 39.5141C38.7883 39.5192 38.94 39.6787 38.935 39.8701C38.9184 40.5004 38.898 41.1192 38.8763 41.7253C38.8699 41.9128 38.7156 42.0595 38.5294 42.0595V42.0608ZM38.6289 38.3569H38.6225C38.4312 38.3531 38.2782 38.1949 38.282 38.0035C38.2922 37.3936 38.2999 36.7761 38.3049 36.1547C38.3062 35.9633 38.4618 35.8102 38.6518 35.8102H38.6544C38.8457 35.8115 39 35.9685 38.9987 36.1598C38.9949 36.7837 38.9873 37.4038 38.9758 38.0162C38.9719 38.2064 38.8176 38.3569 38.6289 38.3569ZM38.6531 34.6505C38.4618 34.6505 38.3075 34.4961 38.3062 34.3047C38.3037 33.6897 38.296 33.0735 38.2846 32.4572C38.2807 32.2658 38.4338 32.1076 38.625 32.1038H38.6314C38.8202 32.1038 38.9745 32.2556 38.9783 32.4444C38.9898 33.0633 38.9962 33.6834 39 34.3009C39 34.4923 38.8457 34.6492 38.6544 34.6505H38.6531ZM38.5842 30.9466C38.398 30.9466 38.2437 30.7986 38.2374 30.611C38.2157 29.9795 38.1902 29.3581 38.1608 28.7661C38.1506 28.5747 38.2986 28.4114 38.4899 28.4012C38.6876 28.3948 38.8444 28.539 38.8546 28.7304C38.8852 29.3262 38.9107 29.9514 38.9324 30.5868C38.9388 30.7781 38.7883 30.9389 38.597 30.9453C38.5932 30.9453 38.5894 30.9453 38.5855 30.9453L38.5842 30.9466ZM38.3955 27.2465C38.2157 27.2465 38.0627 27.1062 38.0499 26.9237C38.0282 26.6277 38.0065 26.3343 37.9823 26.0434C37.9555 25.718 37.9262 25.4003 37.8943 25.089C37.8752 24.8976 38.0142 24.7279 38.2042 24.7088C38.3917 24.6909 38.5651 24.8287 38.5842 25.0188C38.6161 25.334 38.6468 25.6568 38.6735 25.986C38.6978 26.2794 38.7207 26.5754 38.7424 26.874C38.7564 27.0653 38.6123 27.2312 38.421 27.2453C38.4121 27.2453 38.4044 27.2453 38.3955 27.2453V27.2465ZM38.0154 23.5643C37.8458 23.5643 37.6967 23.4393 37.6724 23.2658C37.5844 22.6482 37.485 22.0396 37.374 21.454C37.3383 21.2652 37.462 21.084 37.6507 21.0483C37.8395 21.0113 38.0206 21.1363 38.0563 21.3251C38.1685 21.9197 38.2705 22.5398 38.3598 23.1675C38.3866 23.3576 38.2552 23.5337 38.0652 23.5605C38.0486 23.563 38.032 23.5643 38.0154 23.5643ZM37.3256 19.9281C37.1686 19.9281 37.0271 19.8222 36.9888 19.6627C36.8422 19.0566 36.679 18.4634 36.5043 17.8982C36.4481 17.7144 36.5501 17.5205 36.7325 17.4631C36.9175 17.4069 37.11 17.509 37.1674 17.6914C37.3472 18.2707 37.5143 18.878 37.6648 19.4968C37.7094 19.6831 37.5959 19.8706 37.4097 19.9166C37.3816 19.923 37.3548 19.9268 37.3268 19.9268L37.3256 19.9281ZM36.2237 16.3951C36.0859 16.3951 35.9546 16.3122 35.901 16.1757C35.6702 15.5901 35.4215 15.0312 35.1601 14.5157C35.0734 14.3448 35.1422 14.1355 35.3131 14.0488C35.4827 13.962 35.6931 14.0309 35.7799 14.2019C36.0502 14.7365 36.3091 15.3158 36.5476 15.9218C36.6177 16.1004 36.5298 16.302 36.3525 16.3722C36.3104 16.3888 36.2683 16.3964 36.225 16.3964L36.2237 16.3951ZM34.5365 13.1072C34.4255 13.1072 34.3158 13.0536 34.2495 12.9554C33.6055 12.0074 33.1336 11.6221 33.1298 11.6183C32.9806 11.4983 32.9564 11.2801 33.0762 11.1308C33.1961 10.9816 33.4129 10.9561 33.5621 11.0747C33.5838 11.0926 34.1131 11.5174 34.8234 12.5649C34.9318 12.7232 34.8897 12.9401 34.7316 13.0473C34.6716 13.088 34.6041 13.1072 34.5365 13.1072Z" fill="#E2DCFF"/>
<path d="M48.6353 29C48.4474 29 48.2875 28.8629 48.2742 28.683C48.2449 28.302 48.2116 27.9284 48.1769 27.5625C48.1596 27.3738 48.3062 27.2078 48.506 27.1902C48.7032 27.1751 48.8817 27.3122 48.9004 27.5008C48.9364 27.8694 48.9684 28.2467 48.999 28.6315C49.0137 28.8202 48.8631 28.9836 48.6646 28.9987C48.6553 28.9987 48.6459 28.9987 48.6379 28.9987L48.6353 29ZM48.3341 26.0596C48.1529 26.0596 47.997 25.9325 47.9744 25.759C47.8945 25.1452 47.8052 24.5415 47.7079 23.9642C47.676 23.7769 47.8118 23.602 48.0091 23.5718C48.2089 23.5417 48.3928 23.67 48.4248 23.8561C48.5233 24.4409 48.614 25.0521 48.6939 25.6747C48.7179 25.8621 48.5766 26.0332 48.3781 26.0558C48.3635 26.057 48.3488 26.0583 48.3341 26.0583V26.0596ZM47.7252 22.4575C47.556 22.4575 47.4054 22.3456 47.3708 22.1834C47.2402 21.5747 47.0964 20.9823 46.9458 20.4214C46.8965 20.2377 47.0138 20.0516 47.2069 20.0051C47.4001 19.9573 47.5986 20.0692 47.648 20.2516C47.8025 20.8225 47.9477 21.4262 48.081 22.0463C48.1209 22.2311 47.9944 22.4122 47.7972 22.45C47.7732 22.455 47.7479 22.4563 47.7252 22.4563V22.4575ZM46.7633 18.926C46.61 18.926 46.4674 18.8342 46.4182 18.6883C46.2157 18.0947 45.9958 17.5274 45.7666 16.9992C45.6906 16.8244 45.7786 16.6244 45.9652 16.5527C46.1503 16.4811 46.3622 16.5653 46.4381 16.7401C46.674 17.2834 46.9005 17.8683 47.1083 18.4782C47.1696 18.6581 47.0657 18.8505 46.8738 18.9096C46.8365 18.9209 46.7992 18.926 46.7633 18.926ZM45.2843 15.5617C45.155 15.5617 45.0298 15.4963 44.9645 15.3806C44.6527 14.8297 44.3183 14.3229 43.9719 13.8739C43.8533 13.7204 43.8893 13.5066 44.0518 13.3959C44.2131 13.284 44.4409 13.318 44.5581 13.4714C44.9245 13.9456 45.2763 14.4801 45.6041 15.0599C45.6987 15.2272 45.632 15.4347 45.4548 15.5227C45.4002 15.5504 45.3416 15.5629 45.2843 15.5629V15.5617ZM42.9859 12.6514C42.8993 12.6514 42.8127 12.6225 42.7434 12.5634C41.8893 11.8352 41.2764 11.6767 41.2711 11.6742C41.0792 11.6264 40.962 11.4403 41.0113 11.2579C41.0606 11.0755 41.2551 10.9649 41.4483 11.0101C41.4803 11.0177 42.2264 11.1988 43.2297 12.054C43.379 12.181 43.3909 12.3974 43.2564 12.537C43.1844 12.6124 43.0858 12.6501 42.9872 12.6501L42.9859 12.6514Z" fill="#E2DCFF"/>
<path d="M39.3614 58C39.3376 58 39.3138 57.9975 39.29 57.9935C39.0955 57.9573 38.9685 57.7775 39.0068 57.5936C39.0121 57.566 39.1498 56.9189 39.4396 55.7967C39.4872 55.6144 39.6817 55.5018 39.8749 55.5465C40.0681 55.5918 40.1871 55.7756 40.1395 55.9585C39.8537 57.0641 39.7148 57.7197 39.7135 57.7262C39.679 57.8885 39.5295 58 39.3601 58H39.3614ZM40.2692 54.4544C40.2387 54.4544 40.207 54.4509 40.1752 54.4434C39.9834 54.3947 39.8696 54.2083 39.9212 54.0254C40.0866 53.4437 40.2626 52.852 40.4425 52.2667C40.4981 52.0864 40.6992 51.9839 40.8898 52.0351C41.0803 52.0879 41.1901 52.2768 41.1346 52.4581C40.9559 53.0398 40.7813 53.6266 40.6172 54.2033C40.5735 54.356 40.428 54.4544 40.2692 54.4544ZM41.3463 50.9606C41.3105 50.9606 41.2748 50.9556 41.2377 50.944C41.0472 50.8878 40.9427 50.6964 41.0023 50.5176C41.1955 49.9371 41.3966 49.3529 41.6003 48.78C41.6638 48.6023 41.8676 48.506 42.0569 48.566C42.2447 48.6261 42.3466 48.82 42.2831 48.9977C42.0807 49.5644 41.8809 50.1448 41.689 50.7205C41.64 50.8652 41.4984 50.9591 41.345 50.9591L41.3463 50.9606ZM42.5769 47.5139C42.5358 47.5139 42.4948 47.5077 42.4538 47.4939C42.2672 47.4301 42.1706 47.235 42.2381 47.0573C42.4577 46.4844 42.6854 45.9089 42.9156 45.3472C42.9871 45.172 43.1961 45.0845 43.3814 45.1532C43.5666 45.2208 43.6592 45.4185 43.5865 45.5936C43.3589 46.1503 43.1326 46.7208 42.9143 47.29C42.8613 47.4289 42.7224 47.5152 42.5755 47.5152L42.5769 47.5139ZM43.9689 44.1224C43.9226 44.1224 43.8762 44.1136 43.8312 44.0962C43.6473 44.0236 43.56 43.8247 43.6367 43.6508C43.8842 43.0853 44.1422 42.5211 44.4002 41.9719C44.481 41.8005 44.694 41.7242 44.8766 41.7993C45.0579 41.8756 45.1399 42.077 45.0592 42.2496C44.8025 42.7926 44.5484 43.3518 44.3023 43.9123C44.2454 44.0436 44.1105 44.1224 43.9702 44.1224H43.9689ZM45.5369 40.8022C45.484 40.8022 45.431 40.791 45.3807 40.7684C45.2021 40.6871 45.1254 40.4832 45.2114 40.3144C45.4932 39.7589 45.7843 39.2084 46.0741 38.678C46.1654 38.5104 46.3837 38.4453 46.5597 38.5316C46.7357 38.6179 46.8058 38.8231 46.7145 38.9908C46.4274 39.5149 46.1403 40.0591 45.861 40.6096C45.7989 40.7309 45.6705 40.8022 45.5356 40.8022H45.5369ZM47.3047 37.5759C47.2451 37.5759 47.1843 37.5621 47.1287 37.5321C46.9554 37.4395 46.8932 37.2331 46.9911 37.0679C47.3113 36.5275 47.6395 35.9971 47.9676 35.4879C48.0708 35.3278 48.2931 35.2765 48.4625 35.3741C48.6319 35.4716 48.6861 35.6818 48.5829 35.842C48.2587 36.3436 47.9345 36.8678 47.6196 37.4007C47.5535 37.5121 47.4317 37.5746 47.3047 37.5746V37.5759ZM49.3107 34.4721C49.2419 34.4721 49.1717 34.4533 49.1108 34.4145C48.9454 34.3107 48.9005 34.098 49.0116 33.9429C49.3755 33.4275 49.75 32.9233 50.1244 32.4417C50.2422 32.2903 50.4685 32.2578 50.6273 32.3691C50.7873 32.4805 50.8219 32.6931 50.7039 32.8445C50.3362 33.3174 49.9683 33.814 49.6097 34.3207C49.5409 34.4195 49.4258 34.4721 49.3107 34.4721ZM51.5918 31.5485C51.511 31.5485 51.4302 31.5234 51.3643 31.4709C51.2108 31.352 51.1885 31.1368 51.3139 30.9918C51.731 30.5101 52.1598 30.0435 52.5869 29.6044C52.7219 29.4655 52.9493 29.4567 53.0965 29.5843C53.2431 29.7119 53.2511 29.9271 53.1177 30.066C52.6996 30.4951 52.2798 30.9517 51.8723 31.4233C51.8011 31.5059 51.6975 31.5485 51.5934 31.5485H51.5918ZM54.1985 28.8825C54.1034 28.8825 54.0083 28.8475 53.9381 28.7762C53.8016 28.6398 53.8069 28.4247 53.9514 28.2946C54.4301 27.8642 54.9222 27.4551 55.412 27.0773C55.5656 26.9572 55.793 26.9797 55.9189 27.1261C56.0443 27.2725 56.022 27.4864 55.8674 27.6052C55.3908 27.9718 54.9131 28.3709 54.4471 28.7887C54.377 28.8513 54.2888 28.8825 54.2001 28.8825H54.1985Z" fill="#E2DCFF"/>
<path d="M48.3555 57C48.3359 57 48.3164 56.9985 48.2968 56.9949C48.1037 56.9635 47.9733 56.7865 48.0046 56.5994C48.109 55.9959 48.2212 55.3873 48.3372 54.7873C48.3738 54.6002 48.5603 54.4765 48.752 54.513C48.9451 54.5485 49.0716 54.728 49.0351 54.9146C48.919 55.5095 48.8081 56.1145 48.7051 56.7135C48.6764 56.8813 48.5251 57 48.3555 57ZM49.0573 53.3967C49.0325 53.3967 49.0077 53.3942 48.9829 53.3891C48.7912 53.3501 48.6686 53.167 48.709 52.9814C48.8421 52.3748 48.9804 51.7698 49.1238 51.1841C49.1682 50.9995 49.3599 50.8833 49.5503 50.9275C49.7408 50.9706 49.8595 51.1562 49.8152 51.3408C49.6743 51.9215 49.536 52.5204 49.4043 53.1214C49.3691 53.2831 49.2217 53.3942 49.0573 53.3942V53.3967ZM49.9247 49.8288C49.8947 49.8288 49.8647 49.825 49.8347 49.8174C49.6456 49.7694 49.5308 49.5812 49.5803 49.3981C49.7408 48.8033 49.9104 48.2059 50.0826 47.6211C50.1373 47.438 50.3331 47.3332 50.5222 47.3862C50.7097 47.438 50.8197 47.6287 50.7647 47.8118C50.5924 48.3903 50.4258 48.9813 50.2665 49.5712C50.2247 49.7252 50.0812 49.8288 49.9234 49.8288H49.9247ZM50.9722 46.3064C50.9371 46.3064 50.9004 46.3013 50.8653 46.29C50.6788 46.2331 50.5741 46.0399 50.6343 45.858C50.8276 45.2682 51.0298 44.6797 51.2356 44.1088C51.3011 43.9295 51.5033 43.8347 51.6882 43.8979C51.8736 43.9598 51.9715 44.1568 51.9061 44.3362C51.7028 44.9007 51.5033 45.4829 51.3116 46.0664C51.2629 46.2129 51.1235 46.3064 50.9737 46.3064H50.9722ZM52.2203 42.8446C52.179 42.8446 52.1355 42.837 52.0941 42.8219C51.9113 42.7537 51.8186 42.5554 51.8893 42.3773C52.1161 41.8026 52.3549 41.2267 52.5985 40.666C52.6745 40.4917 52.8819 40.4083 53.0647 40.4828C53.2459 40.5561 53.3308 40.7582 53.2538 40.9337C53.0133 41.4869 52.7776 42.0565 52.5529 42.6249C52.4995 42.7612 52.3639 42.8459 52.2219 42.8459L52.2203 42.8446ZM53.6906 39.4662C53.6408 39.4662 53.59 39.4561 53.5419 39.4346C53.3643 39.355 53.2862 39.1504 53.3685 38.9774C53.6398 38.4116 53.92 37.8521 54.2034 37.3166C54.293 37.1473 54.5072 37.0804 54.6806 37.1663C54.8555 37.2522 54.9246 37.4593 54.8356 37.6285C54.5564 38.1565 54.2804 38.7071 54.0143 39.2653C53.9541 39.3904 53.8263 39.4649 53.6917 39.4649L53.6906 39.4662ZM55.4165 36.2026C55.3562 36.2026 55.2965 36.1887 55.2415 36.1585C55.0708 36.065 55.0105 35.8553 55.1085 35.6899C55.4306 35.1405 55.7622 34.6062 56.0922 34.1036C56.1974 33.9432 56.4169 33.8965 56.5824 33.9975C56.7479 34.0998 56.7961 34.312 56.6919 34.4724C56.3687 34.9662 56.0435 35.4904 55.7266 36.0297C55.6616 36.1408 55.5417 36.2039 55.4175 36.2039L55.4165 36.2026ZM57.4551 33.1147C57.3823 33.1147 57.3089 33.0932 57.2466 33.049C57.0884 32.9366 57.0533 32.7219 57.168 32.5691C57.9076 31.5878 58.3706 31.1243 58.3905 31.1041C58.5272 30.9676 58.7514 30.9652 58.8923 31.0977C59.0332 31.2303 59.0358 31.4476 58.9002 31.584C58.8965 31.589 58.4492 32.0374 57.7431 32.9745C57.674 33.0667 57.5661 33.116 57.4566 33.116L57.4551 33.1147Z" fill="#E2DCFF"/>
<path d="M69.2245 53C69.0944 53 68.9668 52.9959 68.8403 52.9887C68.6453 52.977 68.4968 52.811 68.5083 52.62C68.5203 52.4285 68.6829 52.2846 68.8847 52.2948C69.407 52.3265 69.9784 52.282 70.5734 52.1622C70.7621 52.1227 70.9524 52.2436 70.9927 52.431C71.0319 52.6185 70.9096 52.8023 70.7182 52.8418C70.2022 52.9462 69.7013 52.9985 69.2261 52.9985L69.2245 53ZM67.0475 52.5432C66.9968 52.5432 66.9461 52.5329 66.8964 52.5104C66.3093 52.24 65.764 51.8523 65.2768 51.3586C65.1403 51.2209 65.144 51.0017 65.2846 50.8675C65.4253 50.7349 65.6495 50.7375 65.786 50.8752C66.2131 51.3074 66.6884 51.647 67.1986 51.8815C67.3759 51.9629 67.4512 52.1698 67.368 52.3429C67.3079 52.4694 67.1803 52.5422 67.0465 52.5422L67.0475 52.5432ZM64.4162 49.9773C64.2928 49.9773 64.1731 49.9148 64.1078 49.8013C63.8098 49.2873 63.5374 48.7045 63.2979 48.068C63.2305 47.8882 63.3241 47.688 63.5076 47.6217C63.69 47.5553 63.8955 47.6472 63.9635 47.827C64.1899 48.4277 64.4466 48.9761 64.7247 49.4582C64.8214 49.6253 64.7613 49.837 64.5919 49.9314C64.5375 49.962 64.4764 49.976 64.4178 49.976L64.4162 49.9773ZM63.0794 46.5248C62.9205 46.5248 62.7756 46.4202 62.7354 46.2621C62.5885 45.6882 62.4583 45.0696 62.3464 44.4217C62.3135 44.233 62.4437 44.0531 62.6366 44.0213C62.8305 43.9881 63.013 44.1169 63.0454 44.3057C63.1547 44.9357 63.2823 45.5377 63.4245 46.0938C63.4726 46.28 63.3565 46.4687 63.1667 46.5146C63.138 46.521 63.1092 46.5248 63.0804 46.5248H63.0794ZM62.4348 42.8747C62.2565 42.8747 62.1028 42.7433 62.0834 42.5661C62.017 41.9743 61.9606 41.3481 61.9177 40.704C61.9046 40.5127 62.0531 40.3469 62.2487 40.3354C62.4437 40.3252 62.6131 40.4681 62.6251 40.6593C62.6664 41.2932 62.7213 41.9092 62.7877 42.4908C62.8086 42.6808 62.669 42.853 62.474 42.8747C62.4609 42.8759 62.4478 42.8772 62.4348 42.8772V42.8747ZM62.1849 39.1761C61.9935 39.1761 61.8356 39.0269 61.8304 38.8394C61.8137 38.2744 61.8058 37.6826 61.8058 37.0781V36.9786C61.8048 36.7873 61.9621 36.6304 62.1572 36.6291H62.1598C62.3553 36.6291 62.5127 36.7834 62.5142 36.9735V37.0781C62.5142 37.6749 62.5231 38.2616 62.5388 38.8189C62.544 39.0103 62.3903 39.171 62.1953 39.1761C62.1911 39.1761 62.1885 39.1761 62.1849 39.1761ZM62.0808 35.4736C61.8968 35.4736 61.742 35.3359 61.7279 35.1535C61.6783 34.5452 61.604 33.9368 61.5078 33.3425C61.4765 33.1524 61.6082 32.9752 61.8022 32.9445C61.9961 32.9152 62.177 33.0427 62.2084 33.2328C62.3072 33.845 62.3841 34.4724 62.4348 35.0974C62.4505 35.2887 62.3046 35.4558 62.1091 35.4711C62.1002 35.4711 62.0897 35.4711 62.0808 35.4711V35.4736ZM61.4843 31.8209C61.3254 31.8209 61.1795 31.7151 61.1408 31.5569C60.9923 30.9626 60.8151 30.3746 60.6185 29.8096C60.5547 29.6286 60.6536 29.4309 60.8386 29.3683C61.0221 29.3059 61.225 29.4028 61.2888 29.5839C61.4932 30.168 61.6746 30.7751 61.8294 31.3898C61.8764 31.576 61.7588 31.7635 61.57 31.8095C61.5418 31.8158 61.5131 31.8197 61.4853 31.8197L61.4843 31.8209ZM60.2552 28.3238C60.1213 28.3238 59.9922 28.2486 59.9321 28.121C59.4558 27.1007 59.0679 26.5511 59.0637 26.5459C58.9518 26.3891 58.991 26.1722 59.1526 26.0626C59.3125 25.9529 59.5337 25.9911 59.6461 26.148C59.6628 26.1722 60.0717 26.7487 60.5783 27.8315C60.6603 28.0063 60.5819 28.2116 60.4036 28.2919C60.3555 28.3136 60.3059 28.3238 60.2567 28.3238H60.2552Z" fill="#E2DCFF"/>
<path d="M73.6249 51C73.5559 51 73.4875 50.9839 73.4256 50.9472C73.2605 50.8523 73.0971 50.7483 72.9414 50.6384C72.778 50.5233 72.7476 50.3093 72.874 50.1604C73.0005 50.0115 73.2357 49.984 73.3991 50.0991C73.5366 50.1955 73.6796 50.2868 73.8254 50.3706C74.0004 50.4707 74.0523 50.6809 73.9424 50.8397C73.8712 50.9422 73.7497 50.9985 73.626 50.9985L73.6249 51ZM71.7946 49.4059C71.6792 49.4059 71.5666 49.3584 71.492 49.2671C71.1127 48.7966 70.7593 48.2523 70.4446 47.6505C70.3552 47.4804 70.4347 47.2777 70.6202 47.1964C70.8074 47.115 71.0304 47.1864 71.1193 47.3565C71.4153 47.9208 71.7438 48.4275 72.0961 48.8642C72.2181 49.0156 72.1822 49.2295 72.016 49.3397C71.9486 49.3847 71.8719 49.4059 71.7946 49.4059ZM70.0443 46.1566C69.8875 46.1566 69.7406 46.0665 69.6893 45.9226C69.4889 45.3721 69.3045 44.7728 69.1421 44.1447C69.0958 43.962 69.2194 43.7781 69.4215 43.7356C69.6236 43.6917 69.8246 43.8056 69.871 43.9895C70.0278 44.5989 70.2066 45.1782 70.4005 45.7099C70.4651 45.8889 70.359 46.0815 70.1625 46.1403C70.1238 46.1516 70.0841 46.1579 70.0443 46.1579V46.1566ZM69.1173 42.6245C68.9373 42.6245 68.7794 42.5069 68.749 42.3392C68.643 41.7637 68.5497 41.1518 68.4702 40.5225C68.4464 40.3361 68.5939 40.1671 68.7987 40.1459C69.0008 40.1233 69.1891 40.2585 69.2123 40.4449C69.2907 41.063 69.3829 41.6636 69.4861 42.2279C69.5203 42.413 69.3829 42.5894 69.178 42.6195C69.1576 42.622 69.1366 42.6245 69.1162 42.6245H69.1173ZM68.6557 39.0148C68.4619 39.0148 68.2968 38.8784 68.283 38.6995C68.235 38.1114 68.1974 37.4971 68.1704 36.874C68.1621 36.6863 68.3228 36.5274 68.5293 36.5199C68.7479 36.5124 68.9097 36.6588 68.918 36.8465C68.9445 37.4621 68.9826 38.0676 69.0295 38.6494C69.0444 38.8371 68.8892 38.9998 68.6833 39.0135C68.6734 39.0135 68.6651 39.0135 68.6557 39.0135V39.0148ZM68.4945 35.3826C68.2896 35.3826 68.1218 35.2324 68.1207 35.046C68.1179 34.782 68.1168 34.5205 68.1168 34.2627C68.1168 33.9149 68.1096 33.5696 68.0958 33.2393C68.0875 33.0516 68.2488 32.8927 68.4564 32.8865C68.664 32.8777 68.8368 33.0253 68.844 33.2142C68.8578 33.5533 68.8661 33.9074 68.8661 34.264C68.8661 34.5193 68.8672 34.7783 68.8699 35.0397C68.8727 35.2274 68.7065 35.3826 68.5 35.3838H68.4961L68.4945 35.3826ZM68.3161 31.7566C68.129 31.7566 67.9683 31.629 67.9445 31.4563C67.8634 30.837 67.7524 30.2477 67.6133 29.7047C67.5663 29.522 67.6917 29.338 67.8926 29.2955C68.0931 29.253 68.2952 29.3668 68.3421 29.5495C68.4862 30.1175 68.6032 30.7306 68.6872 31.375C68.712 31.5614 68.5646 31.7316 68.3598 31.7541C68.3448 31.7554 68.3299 31.7566 68.3145 31.7566H68.3161ZM67.3825 28.237C67.235 28.237 67.0948 28.1582 67.0357 28.0255C66.5681 26.9933 66.1186 26.5904 66.1148 26.5867C65.9673 26.4565 65.9607 26.2413 66.1021 26.1062C66.244 25.9711 66.4775 25.9636 66.6271 26.0912C66.6492 26.11 67.1898 26.5792 67.7259 27.7665C67.8043 27.9405 67.7138 28.1394 67.5227 28.2107C67.4758 28.2283 67.4277 28.237 67.3808 28.237H67.3825Z" fill="#E2DCFF"/>
<path d="M74.3927 52.9985C74.2617 52.9985 74.1331 52.9407 74.0595 52.8373C73.9453 52.6767 74.0003 52.4649 74.1835 52.3651C74.1922 52.36 74.8112 52.0093 75.4794 51.1271C75.5994 50.9695 75.8445 50.9266 76.0236 51.0314C76.2045 51.1362 76.2531 51.3496 76.1332 51.5072C75.36 52.5267 74.6298 52.9316 74.599 52.9483C74.5341 52.9838 74.4634 53 74.3916 53L74.3927 52.9985ZM76.7481 50.0281C76.7023 50.0281 76.6542 50.0205 76.6096 50.0054C76.4062 49.9385 76.3036 49.7404 76.3801 49.5625C76.6067 49.0362 76.7916 48.462 76.926 47.8563C76.9678 47.6696 77.1758 47.5497 77.3862 47.585C77.6001 47.6216 77.7386 47.8021 77.6969 47.9875C77.5537 48.6311 77.3572 49.2419 77.115 49.8047C77.0558 49.9423 76.9057 50.0268 76.7469 50.0268L76.7481 50.0281ZM77.5722 46.4505C77.5636 46.4505 77.5566 46.4505 77.5479 46.4505C77.3312 46.4392 77.1671 46.2764 77.1799 46.0858C77.1973 45.8435 77.2089 45.5924 77.2129 45.3388C77.2176 45.1494 77.4024 44.9892 77.6128 45.0006C77.8296 45.0044 78.0023 45.1608 78 45.3501C77.9942 45.6126 77.9826 45.8751 77.9652 46.1275C77.9519 46.3092 77.7786 46.4493 77.574 46.4493L77.5722 46.4505Z" fill="#E2DCFF"/>
<path d="M80.3559 49C80.2693 49 80.1833 48.9731 80.115 48.9195C79.9702 48.8054 79.9613 48.6129 80.093 48.4888C80.485 48.123 80.8381 47.6979 81.1435 47.227C81.239 47.0804 81.4563 47.0267 81.6273 47.1084C81.7984 47.19 81.8614 47.3757 81.7659 47.5223C81.4337 48.0346 81.047 48.4988 80.6172 48.8993C80.5464 48.9642 80.4514 48.9978 80.3543 48.9978L80.3559 49ZM82.2114 46.1922C82.1746 46.1922 82.1369 46.1877 82.0991 46.1765C81.9123 46.124 81.8115 45.9517 81.8729 45.7918C82.2061 44.9304 82.2896 44.2794 82.2911 44.2727C82.3121 44.106 82.4842 43.9829 82.6821 44.0019C82.8767 44.0198 83.0189 44.1698 82.9979 44.3364C82.9943 44.3655 82.9066 45.0546 82.5472 45.983C82.4973 46.1106 82.3588 46.1922 82.2103 46.1922H82.2114Z" fill="#E2DCFF"/>
<path d="M34 75C34.269 75 34.5023 75.0548 34.7017 75.1624C34.9011 75.2716 35 75.4769 35 75.7778C35 76.0788 34.9011 76.2652 34.7017 76.3773C34.5023 76.4889 34.269 76.5447 34 76.5447C33.731 76.5447 33.4884 76.4889 33.2921 76.3773C33.0974 76.2652 33 76.0653 33 75.7778C33 75.4903 33.0974 75.2716 33.2921 75.1624C33.4868 75.0533 33.7234 75 34 75ZM34.915 77.2602V83H33.0726V77.2602H34.915Z" fill="#EFF8FF"/>
<path d="M40.0834 77C40.6768 77 41.1437 77.1693 41.4867 77.5074C41.8297 77.8449 42 78.3958 42 79.1584V83H40.5178V79.5686C40.5178 79.1451 40.4464 78.8264 40.305 78.6132C40.1635 78.4014 39.9444 78.2945 39.6477 78.2945C39.1995 78.2945 38.8953 78.4613 38.7338 78.7963C38.5724 79.1313 38.4922 79.611 38.4922 80.2371V83H37V77.1079H38.1467L38.3545 77.8956H38.4133C38.5323 77.7012 38.675 77.537 38.8428 77.4046C39.0105 77.2721 39.1983 77.1708 39.4061 77.1028C39.6139 77.0343 39.8392 77 40.0834 77Z" fill="#EFF8FF"/>
<path d="M46.7006 77.212C46.3917 77.212 46.1128 77.264 45.864 77.3693C45.6152 77.4742 45.406 77.6266 45.2324 77.8273C45.0602 78.0276 44.9289 78.2694 44.8387 78.552C44.7485 78.835 44.7034 79.1573 44.7034 79.5199C44.7034 79.9973 44.7785 80.4055 44.9303 80.745C45.0807 81.0859 45.3089 81.3445 45.6152 81.5222C45.9214 81.6998 46.3042 81.7893 46.7649 81.7893C47.1025 81.7893 47.4279 81.7541 47.741 81.684C48.054 81.6139 48.3684 81.5244 48.6856 81.4168V82.6569C48.3616 82.7776 48.0321 82.8644 47.6986 82.9191C47.3636 82.9733 46.9918 83 46.5817 83C45.7614 83 45.0875 82.8549 44.5585 82.566C44.0294 82.2771 43.637 81.8689 43.3828 81.3409C43.1272 80.8128 43 80.2025 43 79.5104C43 78.9955 43.0807 78.5231 43.2434 78.094C43.4047 77.665 43.6439 77.2943 43.9611 76.9824C44.2768 76.6709 44.6664 76.429 45.1258 76.2577C45.5851 76.0859 46.1183 76 46.7225 76C47.1039 76 47.4908 76.0366 47.8831 76.1103C48.2754 76.184 48.6473 76.2961 49 76.4485L48.46 77.6121C48.2016 77.5045 47.9255 77.4105 47.6343 77.3305C47.3431 77.2509 47.0314 77.2111 46.7006 77.2111V77.212Z" fill="#EFF8FF"/>
<path d="M51.7919 76.6108C51.7919 76.9201 51.7813 77.1904 51.7616 77.4264C51.7419 77.6613 51.724 77.8494 51.7093 77.9891H51.8037C51.9465 77.7851 52.1117 77.6239 52.3022 77.5052C52.4915 77.3865 52.7033 77.2972 52.936 77.2373C53.1686 77.1775 53.4164 77.148 53.6766 77.148C54.1418 77.148 54.5492 77.2214 54.8976 77.3695C55.2459 77.5162 55.5162 77.7427 55.7101 78.048C55.9039 78.3532 56 78.7548 56 79.2532V83H54.2098V79.6532C54.2098 79.2397 54.1272 78.9294 53.9603 78.7214C53.7951 78.5144 53.5338 78.4106 53.1782 78.4106C52.8219 78.4106 52.5561 78.4839 52.3533 78.6321C52.1521 78.7798 52.0077 78.9933 51.9206 79.2746C51.8335 79.556 51.7903 79.8987 51.7903 80.3052V83H50V75H51.7903V76.6108H51.7919Z" fill="#EFF8FF"/>
<path d="M59.84 77C60.5429 77 61.0787 77.1718 61.4471 77.5145C61.8156 77.8566 62 78.3646 62 79.0358V82.894H60.9244L60.6273 82.1097H60.5856C60.4288 82.3152 60.2667 82.4845 60.0992 82.6187C59.9318 82.7528 59.7386 82.8498 59.5206 82.9101C59.3027 82.9704 59.0352 83 58.7217 83C58.4076 83 58.0999 82.9342 57.8407 82.8041C57.581 82.6739 57.3762 82.4735 57.2257 82.2052C57.0752 81.9364 57 81.5982 57 81.1872C57 80.5803 57.2116 80.1236 57.6344 79.8201C58.0572 79.5167 58.6892 79.3473 59.5284 79.3112L60.4599 79.279V79.0992C60.4599 78.7525 60.3846 78.5108 60.2342 78.3726C60.0837 78.234 59.8721 78.1656 59.5997 78.1656C59.3469 78.1656 59.0872 78.2088 58.8212 78.2933C58.5557 78.3777 58.2921 78.4797 58.0324 78.6007L57.5825 77.509C57.8756 77.3532 58.2115 77.2296 58.5906 77.1382C58.9692 77.0472 59.3842 77 59.8347 77H59.84ZM59.8813 80.2442C59.3964 80.2593 59.059 80.3396 58.8683 80.4889C58.6775 80.6381 58.5814 80.8461 58.5814 81.1144C58.5814 81.3616 58.6474 81.5445 58.7814 81.66C58.9149 81.7766 59.0901 81.8344 59.308 81.8344C59.6362 81.8344 59.9099 81.7349 60.1317 81.5374C60.3536 81.34 60.4652 81.0566 60.4652 80.6903V80.2135L59.8813 80.2457V80.2442Z" fill="#EFF8FF"/>
<path d="M66.9934 77.0016C67.6137 77.0016 68.1036 77.2706 68.4618 77.8091C68.82 78.3476 69 79.1412 69 80.1883C69 80.8811 68.9132 81.47 68.7406 81.9512C68.5685 82.4334 68.3268 82.7946 68.0164 83.0368C67.7065 83.2774 67.3534 83.399 66.9554 83.399C66.6937 83.399 66.4691 83.3588 66.2794 83.2801C66.0896 83.2013 65.9324 83.1027 65.8043 82.9864C65.6767 82.8691 65.5677 82.7474 65.4772 82.6183H65.4188C65.4322 82.7544 65.4447 82.9103 65.4587 83.0882C65.4707 83.2656 65.4781 83.4478 65.4781 83.6369V86H64V77.1147H65.2044L65.4099 77.9163H65.4781C65.576 77.7432 65.6916 77.5884 65.8256 77.4528C65.9593 77.3167 66.1216 77.2074 66.3151 77.1243C66.5077 77.0413 66.7345 77 66.9962 77L66.9934 77.0016ZM66.5049 78.3578C66.2571 78.3578 66.0586 78.4178 65.9087 78.5379C65.7584 78.6584 65.6507 78.8401 65.5849 79.0807C65.5194 79.3213 65.4833 79.6278 65.4772 79.9959V80.1765C65.4772 80.5687 65.5078 80.9015 65.57 81.1764C65.6322 81.4512 65.7398 81.6602 65.8925 81.8033C66.046 81.9469 66.2534 82.0182 66.5137 82.0182C66.7359 82.0182 66.9206 81.9469 67.0667 81.8033C67.2133 81.6602 67.3224 81.4512 67.3943 81.1764C67.4662 80.9015 67.5019 80.5644 67.5019 80.1652C67.5019 79.5549 67.4189 79.101 67.2528 78.8031C67.0867 78.5052 66.8375 78.3562 66.5039 78.3562L66.5049 78.3578Z" fill="#EFF8FF"/>
<path d="M24 75H26.1044L27.9838 80.1886H28.0052L29.8846 75H32V83H30.3463V77.7425H30.3352L28.4345 83H27.5752L25.6537 77.7425H25.6427V83H24V75Z" fill="#EFF8FF"/>
</g>
<defs>
<linearGradient id="paint0_linear_205_2599" x1="29" y1="34.4995" x2="51" y2="34.4995" gradientUnits="userSpaceOnUse">
<stop stop-color="#B827FF"/>
<stop offset="1" stop-color="#290155"/>
</linearGradient>
<linearGradient id="paint1_linear_205_2599" x1="8.00032" y1="42.4994" x2="35" y2="42.4994" gradientUnits="userSpaceOnUse">
<stop stop-color="#E735FF"/>
<stop offset="1" stop-color="#290155"/>
</linearGradient>
<linearGradient id="paint2_linear_205_2599" x1="37" y1="42.0005" x2="60.9985" y2="42.0005" gradientUnits="userSpaceOnUse">
<stop stop-color="#B027FF"/>
<stop offset="1" stop-color="#170E30"/>
</linearGradient>
<linearGradient id="paint3_linear_205_2599" x1="55.0025" y1="39.5005" x2="75" y2="39.5005" gradientUnits="userSpaceOnUse">
<stop stop-color="#9514FF"/>
<stop offset="1" stop-color="#170E30"/>
</linearGradient>
<linearGradient id="paint4_linear_205_2599" x1="69" y1="48.5007" x2="84.0008" y2="48.5007" gradientUnits="userSpaceOnUse">
<stop stop-color="#7748FF"/>
<stop offset="1" stop-color="#170E30"/>
</linearGradient>
</defs>
</svg>
