<svg width="22" height="20" viewBox="0 0 22 20" fill="none" xmlns="http://www.w3.org/2000/svg">
<path d="M15.9102 0.75C17.311 0.75177 18.664 1.3422 19.6689 2.4082C20.6124 3.40907 21.1751 4.75207 21.2432 6.1748L21.25 6.46094C21.2495 9.77444 18.9129 12.8829 16.3389 15.2744C13.7968 17.6362 11.1956 19.1399 11.0049 19.2471L11.001 19.249L11 19.25L10.999 19.249H11L10.9951 19.2471L10.4385 18.9131C9.5074 18.3343 7.56768 17.0457 5.66113 15.2744C3.08708 12.8829 0.750508 9.77444 0.75 6.46094C0.751623 4.93309 1.32464 3.47586 2.33105 2.4082C3.33573 1.34245 4.68833 0.752043 6.08887 0.75C7.87965 0.75 9.42485 1.56245 10.3877 2.92285L11 3.78711L11.6123 2.92285C12.575 1.56259 14.1196 0.750169 15.9102 0.75Z" stroke="#EFF8FF" stroke-width="1.5"/>
</svg>
