<svg width="21" height="21" viewBox="0 0 21 21" fill="none" xmlns="http://www.w3.org/2000/svg">
<path fill-rule="evenodd" clip-rule="evenodd" d="M10.375 0.988239C10.2061 0.905613 10.0078 0.905613 9.83887 0.988239C7.0865 2.33045 4.33536 2.96698 1.58299 2.7644C1.41346 2.75154 1.24637 2.8103 1.12151 2.92597C0.997267 3.04226 0.92627 3.20445 0.92627 3.3746V13.7794C0.92627 14.9355 1.68215 16.0121 2.97662 16.8904C4.68545 18.0502 7.35091 18.9003 10.0206 19.2816C10.0776 19.2896 10.1363 19.2896 10.1932 19.2816C12.863 18.9003 15.5284 18.0502 17.2373 16.8904C18.5317 16.0121 19.2876 14.9355 19.2876 13.7794V3.3746C19.2876 3.20445 19.2166 3.04226 19.0924 2.92597C18.9675 2.8103 18.8004 2.75154 18.6309 2.7644C15.8785 2.96698 13.1274 2.33045 10.375 0.988239ZM10.1069 2.21722C12.7589 3.46885 15.4115 4.09681 18.0635 4.01908V13.7794C18.0635 14.5824 17.449 15.2679 16.5493 15.8781C14.9862 16.9387 12.5502 17.6989 10.1082 18.0569C7.66366 17.6989 5.22772 16.9387 3.66456 15.8781C2.76485 15.2679 2.15036 14.5824 2.15036 13.7794V4.01908C4.80235 4.09681 7.45556 3.46885 10.1069 2.21722Z" fill="white"/>
<path fill-rule="evenodd" clip-rule="evenodd" d="M7.65864 8.88294H7.16902C6.81219 8.88294 6.46945 9.02494 6.21667 9.2771C5.96451 9.52987 5.82251 9.87262 5.82251 10.2294V13.6569C5.82251 14.0137 5.96451 14.3565 6.21667 14.6092C6.46945 14.8614 6.81219 15.0034 7.16902 15.0034H13.0446C13.4014 15.0034 13.7442 14.8614 13.997 14.6092C14.2491 14.3565 14.3911 14.0137 14.3911 13.6569V10.2294C14.3911 9.87262 14.2491 9.52987 13.997 9.2771C13.7442 9.02494 13.4014 8.88294 13.0446 8.88294H12.555V7.04681C12.555 6.39743 12.2973 5.77498 11.8377 5.31595C11.3787 4.8563 10.7562 4.59863 10.1068 4.59863C9.45744 4.59863 8.83499 4.8563 8.37596 5.31595C7.91631 5.77498 7.65864 6.39743 7.65864 7.04681V8.88294ZM13.167 10.2294V13.6569C13.167 13.6893 13.1542 13.7205 13.1309 13.7432C13.1083 13.7664 13.0771 13.7793 13.0446 13.7793H7.16902C7.13658 13.7793 7.10535 13.7664 7.0827 13.7432C7.05945 13.7205 7.0466 13.6893 7.0466 13.6569V10.2294C7.0466 10.197 7.05945 10.1658 7.0827 10.1431C7.10535 10.1199 7.13658 10.107 7.16902 10.107H13.0446C13.0771 10.107 13.1083 10.1199 13.1309 10.1431C13.1542 10.1658 13.167 10.197 13.167 10.2294ZM11.3309 8.88294V7.04681C11.3309 6.72243 11.2018 6.4109 10.9723 6.18138C10.7427 5.95186 10.4312 5.82272 10.1068 5.82272C9.78244 5.82272 9.47091 5.95186 9.24139 6.18138C9.01187 6.4109 8.88273 6.72243 8.88273 7.04681V8.88294H11.3309Z" fill="white"/>
</svg>
