<svg width="429" height="429" viewBox="0 0 429 429" fill="none" xmlns="http://www.w3.org/2000/svg">
<path d="M378.678 118.262C378.207 107.912 378.207 98.0329 378.207 88.1537C378.207 80.1562 372.091 74.0406 364.094 74.0406C305.289 74.0406 260.598 57.1048 223.433 20.8811C217.788 15.7063 209.32 15.7063 203.675 20.8811C166.51 57.1048 121.819 74.0406 63.014 74.0406C55.0166 74.0406 48.9009 80.1562 48.9009 88.1537C48.9009 98.0329 48.9009 107.912 48.4304 118.262C46.5487 217.054 43.726 352.54 208.85 409.462L213.554 410.403L218.258 409.462C382.912 352.54 380.559 217.524 378.678 118.262ZM202.264 255.159C199.441 257.511 196.148 258.922 192.384 258.922H191.914C188.15 258.922 184.387 257.041 182.035 254.218L138.284 205.763L159.454 186.946L193.796 225.051L270.007 152.604L289.294 173.303L202.264 255.159Z" fill="#BD67FF"/>
</svg>
