<svg width="20" height="20" viewBox="0 0 20 20" fill="none" xmlns="http://www.w3.org/2000/svg">
<path d="M2.92892 2.92892C4.81766 1.04019 7.32895 0 10 0C12.6711 0 15.1823 1.04019 17.0711 2.92892C18.9598 4.81766 20 7.32895 20 10C20 12.6711 18.9598 15.1823 17.0711 17.0711C15.1823 18.9598 12.6711 20 10 20C7.32895 20 4.81766 18.9598 2.92892 17.0711C1.04019 15.1823 0 12.6711 0 10C0 7.32895 1.04019 4.81766 2.92892 2.92892ZM15.6599 16.7694C15.3297 13.9282 12.887 11.7346 10 11.7346C8.47809 11.7346 7.04697 12.3276 5.97046 13.4039C5.06104 14.3135 4.48746 15.5011 4.3399 16.7693C5.87341 18.0536 7.8479 18.8281 10 18.8281C12.1521 18.8281 14.1264 18.0537 15.6599 16.7694ZM10 10.5276C11.6747 10.5276 13.0373 9.16504 13.0373 7.49039C13.0373 5.81558 11.6747 4.45312 10 4.45312C8.32535 4.45312 6.96274 5.81558 6.96274 7.49039C6.96274 9.16504 8.32535 10.5276 10 10.5276ZM3.3313 15.7787C3.62991 14.5747 4.25262 13.4647 5.14191 12.5754C5.86212 11.8552 6.71417 11.3148 7.64343 10.9763C6.52634 10.2187 5.79086 8.93875 5.79086 7.49039C5.79086 5.16953 7.67914 3.28125 10 3.28125C12.3209 3.28125 14.2091 5.16953 14.2091 7.49039C14.2091 8.93951 13.4731 10.2199 12.355 10.9773C13.21 11.2889 14.0012 11.7706 14.6819 12.4048C15.6676 13.3228 16.3521 14.4933 16.6695 15.7777C18.0136 14.2282 18.8281 12.2075 18.8281 10C18.8281 5.13214 14.8679 1.17188 10 1.17188C5.13214 1.17188 1.17188 5.13214 1.17188 10C1.17188 12.2079 1.98669 14.2291 3.3313 15.7787Z" fill="white"/>
</svg>
