<svg width="21" height="21" viewBox="0 0 21 21" fill="none" xmlns="http://www.w3.org/2000/svg">
<path d="M19.75 19.75L15.1658 15.1658M15.1658 15.1658C15.9499 14.3816 16.5719 13.4507 16.9963 12.4262C17.4207 11.4016 17.6391 10.3035 17.6391 9.19456C17.6391 8.08561 17.4207 6.98751 16.9963 5.96297C16.5719 4.93843 15.9499 4.00751 15.1658 3.22336C14.3816 2.43921 13.4507 1.81718 12.4262 1.3928C11.4016 0.968425 10.3035 0.75 9.19456 0.75C8.08561 0.75 6.98751 0.968425 5.96297 1.3928C4.93843 1.81718 4.00751 2.43921 3.22336 3.22336C1.63969 4.80702 0.75 6.95493 0.75 9.19456C0.75 11.4342 1.63969 13.5821 3.22336 15.1658C4.80702 16.7494 6.95493 17.6391 9.19456 17.6391C11.4342 17.6391 13.5821 16.7494 15.1658 15.1658Z" stroke="#BF8EFF" stroke-width="1.5" stroke-linecap="round" stroke-linejoin="round"/>
</svg>
