<svg width="512" height="512" viewBox="0 0 512 512" fill="none" xmlns="http://www.w3.org/2000/svg">
<path d="M480 256C480 315.409 456.4 372.384 414.392 414.392C372.384 456.4 315.408 480 256 480C196.592 480 139.616 456.4 97.6081 414.392C55.5999 372.384 32 315.409 32 256C32 251.757 33.6857 247.687 36.6863 244.686C39.6869 241.686 43.7565 240 48 240C52.2435 240 56.3131 241.686 59.3137 244.686C62.3143 247.687 64 251.757 64 256C63.9359 298.849 78.1856 340.492 104.487 374.319C130.789 408.145 167.636 432.218 209.179 442.716C250.722 453.213 294.581 449.534 333.795 432.263C373.009 414.991 405.331 385.117 425.63 347.381C445.929 309.646 453.042 266.211 445.841 223.971C438.639 181.732 417.536 143.108 385.88 114.23C354.224 85.3517 313.83 67.8743 271.109 64.5717C228.387 61.2691 185.786 72.3305 150.068 96.0001H160C164.243 96.0001 168.313 97.6858 171.314 100.686C174.314 103.687 176 107.757 176 112C176 116.244 174.314 120.313 171.314 123.314C168.313 126.314 164.243 128 160 128H112C109.899 128.001 107.817 127.588 105.876 126.785C103.934 125.981 102.17 124.802 100.684 123.317C99.1976 121.831 98.0191 120.066 97.2155 118.124C96.4118 116.183 95.9988 114.102 96 112V64.0001C96 59.7567 97.6857 55.687 100.686 52.6864C103.687 49.6858 107.757 48.0001 112 48.0001C116.243 48.0001 120.313 49.6858 123.314 52.6864C126.314 55.687 128 59.7567 128 64.0001V72.2228C161.58 48.8177 200.933 35.0636 241.782 32.4552C282.632 29.8469 323.414 38.484 359.699 57.428C395.984 76.372 426.382 104.898 447.592 139.907C468.801 174.916 480.01 215.068 480 256ZM400 256C400 284.481 391.555 312.322 375.732 336.002C359.909 359.683 337.419 378.14 311.106 389.039C284.794 399.938 255.84 402.789 227.907 397.233C199.974 391.677 174.315 377.962 154.177 357.823C134.038 337.685 120.323 312.026 114.767 284.093C109.211 256.16 112.062 227.206 122.961 200.894C133.86 174.581 152.317 152.091 175.998 136.268C199.679 120.446 227.519 112 256 112C294.178 112.042 330.781 127.227 357.777 154.223C384.774 181.219 399.958 217.822 400 256ZM312.875 274.688L272 247.438V176C272 171.757 270.314 167.687 267.314 164.686C264.313 161.686 260.243 160 256 160C251.757 160 247.687 161.686 244.686 164.686C241.686 167.687 240 171.757 240 176V256C240.001 258.634 240.651 261.227 241.894 263.549C243.137 265.871 244.934 267.851 247.125 269.312L295.125 301.312C298.656 303.617 302.954 304.434 307.084 303.587C311.215 302.741 314.844 300.297 317.183 296.789C319.522 293.281 320.381 288.991 319.575 284.853C318.768 280.714 316.36 277.061 312.875 274.688Z" fill="#BD67FF"/>
</svg>
