<svg width="512" height="512" viewBox="0 0 512 512" fill="none" xmlns="http://www.w3.org/2000/svg">
<g clip-path="url(#clip0_277_1721)">
<path d="M280.16 410.08C280.16 375.38 293.67 342.75 318.21 318.21C342.75 293.67 375.37 280.16 410.08 280.16C438.57 280.16 465.66 289.28 488.03 306.12C489.27 288 490.04 267.73 490.07 245.04C490.01 187.97 485.22 146.18 480.11 115.47C471.17 64.87 425.21 18.91 374.61 9.97C343.9 4.85 302.11 0.06 245.03 0C187.96 0.06 146.16 4.85 115.45 9.96C64.86 18.9 18.9 64.86 9.96 115.46C4.85 146.17 0.07 187.96 0 245.03C0.07 302.1 4.85 343.9 9.96 374.61C18.9 425.21 64.86 471.17 115.46 480.11C146.17 485.22 187.96 490 245.04 490.07C267.73 490.04 288 489.27 306.12 488.03C289.28 465.66 280.16 438.58 280.16 410.08ZM123.96 118.42H366.11C381.77 118.42 394.47 131.12 394.47 146.78C394.47 162.44 381.77 175.14 366.11 175.14H123.96C108.3 175.14 95.6 162.44 95.6 146.78C95.6 131.12 108.3 118.42 123.96 118.42ZM123.96 293.57C108.3 293.57 95.6 280.87 95.6 265.21C95.6 249.55 108.3 236.85 123.96 236.85H266.11C281.77 236.85 294.47 249.55 294.47 265.21C294.47 280.87 281.77 293.57 266.11 293.57H123.96Z" fill="#BD67FF"/>
<path d="M410.08 308.16C353.79 308.16 308.16 353.79 308.16 410.08C308.16 466.37 353.79 512 410.08 512C466.37 512 512 466.37 512 410.08C512 353.79 466.37 308.16 410.08 308.16ZM429.08 460.65C429.08 471.14 420.57 479.65 410.08 479.65C399.59 479.65 391.08 471.14 391.08 460.65V410.52C391.08 400.03 399.59 391.52 410.08 391.52C420.57 391.52 429.08 400.03 429.08 410.52V460.65ZM428.3 369.85C427.6 373.81 424 377.41 420.04 378.11C417.64 378.51 414.36 378.88 409.89 378.89C405.42 378.89 402.15 378.51 399.74 378.11C395.78 377.41 392.18 373.81 391.48 369.85C391.08 367.45 390.71 364.17 390.7 359.7C390.7 355.23 391.08 351.96 391.48 349.55C392.18 345.59 395.78 341.99 399.74 341.29C402.14 340.89 405.42 340.52 409.89 340.51C414.36 340.51 417.63 340.89 420.04 341.29C424 341.99 427.6 345.59 428.3 349.55C428.7 351.95 429.07 355.23 429.08 359.7C429.08 364.17 428.7 367.44 428.3 369.85Z" fill="#BD67FF"/>
</g>
<defs>
<clipPath id="clip0_277_1721">
<rect width="512" height="512" fill="white"/>
</clipPath>
</defs>
</svg>
