<svg width="21" height="21" viewBox="0 0 21 21" fill="none" xmlns="http://www.w3.org/2000/svg">
<g clip-path="url(#clip0_205_2635)">
<path d="M5.42841 6.87001H14.4361C14.6214 6.87001 14.7992 6.79638 14.9303 6.6653C15.0613 6.53423 15.135 6.35646 15.135 6.17109C15.135 5.98572 15.0613 5.80795 14.9303 5.67688C14.7992 5.5458 14.6214 5.47217 14.4361 5.47217H5.42841C5.24305 5.47217 5.06528 5.5458 4.9342 5.67688C4.80313 5.80795 4.72949 5.98572 4.72949 6.17109C4.72949 6.35646 4.80313 6.53423 4.9342 6.6653C5.06528 6.79638 5.24305 6.87001 5.42841 6.87001Z" fill="white"/>
<path d="M11.4734 10.528C11.4734 10.3427 11.3997 10.1649 11.2686 10.0338C11.1376 9.90274 10.9598 9.8291 10.7744 9.8291H5.42841C5.24305 9.8291 5.06528 9.90274 4.9342 10.0338C4.80313 10.1649 4.72949 10.3427 4.72949 10.528C4.72949 10.7134 4.80313 10.8912 4.9342 11.0222C5.06528 11.1533 5.24305 11.2269 5.42841 11.2269H10.7744C10.9598 11.2269 11.1376 11.1533 11.2686 11.0222C11.3997 10.8912 11.4734 10.7134 11.4734 10.528Z" fill="white"/>
<path d="M15.8715 16.1569C15.6227 16.1186 15.3696 16.1186 15.1208 16.1569C15.0457 16.1728 14.9769 16.2102 14.9226 16.2644C14.8684 16.3187 14.831 16.3875 14.8151 16.4626C14.7768 16.7112 14.7768 16.9643 14.8151 17.213C14.8312 17.288 14.8686 17.3567 14.9228 17.4109C14.977 17.4652 15.0458 17.5026 15.1208 17.5187C15.3696 17.5569 15.6227 17.5569 15.8715 17.5187C15.9465 17.5026 16.0152 17.4652 16.0694 17.411C16.1236 17.3567 16.1609 17.288 16.1769 17.213C16.2156 16.9643 16.2156 16.7112 16.1769 16.4626C16.161 16.3875 16.1237 16.3187 16.0695 16.2644C16.0153 16.2102 15.9466 16.1728 15.8715 16.1569Z" fill="white"/>
<path d="M15.4958 15.6931C15.6812 15.6931 15.8589 15.6195 15.99 15.4884C16.1211 15.3573 16.1947 15.1795 16.1947 14.9942V13.8281C16.1947 13.6427 16.1211 13.4649 15.99 13.3339C15.8589 13.2028 15.6812 13.1292 15.4958 13.1292C15.3104 13.1292 15.1327 13.2028 15.0016 13.3339C14.8705 13.4649 14.7969 13.6427 14.7969 13.8281V14.9942C14.7969 15.1795 14.8705 15.3573 15.0016 15.4884C15.1327 15.6195 15.3104 15.6931 15.4958 15.6931Z" fill="white"/>
<path d="M15.495 12.4735C16.0622 12.4735 16.6166 12.6416 17.0882 12.9566C17.5598 13.2717 17.9274 13.7195 18.1445 14.2435C18.3615 14.7674 18.4183 15.344 18.3077 15.9003C18.1971 16.4565 17.924 16.9675 17.5229 17.3685C17.1219 17.7696 16.6109 18.0427 16.0547 18.1533C15.4984 18.2639 14.9219 18.2071 14.3979 17.99C13.8739 17.773 13.4261 17.4054 13.111 16.9338C12.796 16.4622 12.6279 15.9077 12.628 15.3406C12.6285 14.5804 12.9308 13.8515 13.4683 13.3139C14.0059 12.7764 14.7348 12.4741 15.495 12.4735ZM15.495 11.0757C14.6514 11.0757 13.8267 11.3258 13.1253 11.7945C12.4239 12.2632 11.8772 12.9294 11.5544 13.7088C11.2316 14.4882 11.1471 15.3458 11.3117 16.1732C11.4763 17.0006 11.8826 17.7606 12.4791 18.3571C13.0757 18.9536 13.8357 19.3598 14.6631 19.5243C15.4905 19.6888 16.3481 19.6043 17.1275 19.2814C17.9069 18.9586 18.573 18.4118 19.0416 17.7103C19.5103 17.0089 19.7603 16.1842 19.7603 15.3406C19.7603 14.7805 19.6499 14.2259 19.4356 13.7084C19.2212 13.1909 18.9071 12.7208 18.511 12.3247C18.1149 11.9287 17.6447 11.6145 17.1272 11.4002C16.6097 11.1859 16.0551 11.0756 15.495 11.0757Z" fill="white"/>
<path d="M11.7331 17.3513C11.1567 17.3837 10.5608 17.4006 9.93982 17.4013C8.28448 17.3995 6.80203 17.2862 5.41044 17.0552C4.79207 16.9448 4.16599 16.5976 3.64658 16.0785C3.12717 15.5595 2.78102 14.9341 2.67029 14.315C2.43928 12.9249 2.32598 11.4432 2.32414 9.78417C2.3223 8.12515 2.43928 6.64601 2.67029 5.25478C2.78102 4.63753 3.12753 4.01144 3.64842 3.49387C4.1693 2.9763 4.79391 2.62794 5.41412 2.51722C6.80129 2.28473 8.28338 2.17143 9.93872 2.16959C11.5941 2.16775 13.0769 2.28473 14.4685 2.51574C15.0887 2.62647 15.714 2.97299 16.2331 3.49387C16.7521 4.01475 17.099 4.63936 17.2097 5.25957C17.4407 6.64748 17.5533 8.12883 17.5559 9.78417C17.5559 10.4055 17.5382 11.0014 17.5058 11.5775C18.0161 11.8509 18.4656 12.2249 18.8272 12.677C18.9007 11.8559 18.9522 10.8995 18.9537 9.78417C18.9511 7.68483 18.7753 6.14757 18.5859 5.01789C18.257 3.15655 16.5663 1.46589 14.705 1.13703C13.5768 0.950158 12.0395 0.773956 9.93872 0.771749C7.8379 0.769541 6.30322 0.950158 5.17354 1.1396C3.3122 1.46699 1.62154 3.15765 1.29415 5.01899C1.10471 6.14867 0.928872 7.6874 0.926297 9.78417C0.923722 11.8809 1.10471 13.4222 1.29415 14.5519C1.62264 16.4133 3.31367 18.1039 5.17501 18.4328C6.30469 18.6208 7.84195 18.7966 9.94129 18.8006C11.0566 18.8006 12.013 18.7491 12.8341 18.6741C12.3814 18.3122 12.0068 17.8622 11.7331 17.3513Z" fill="white"/>
</g>
<defs>
<clipPath id="clip0_205_2635">
<rect width="19.4516" height="19.4516" fill="white" transform="translate(0.617432 0.308594)"/>
</clipPath>
</defs>
</svg>
