<svg width="512" height="512" viewBox="0 0 512 512" fill="none" xmlns="http://www.w3.org/2000/svg">
<g clip-path="url(#clip0_272_2446)">
<path fill-rule="evenodd" clip-rule="evenodd" d="M461.795 408.289C493.343 365.732 512 313.045 512 256C512 114.614 397.383 0 256 0C114.614 0 0 114.614 0 256C0 397.383 114.614 512 256 512C330.178 512 396.986 480.452 443.744 430.039C450.146 423.131 456.176 415.872 461.795 408.289ZM447.602 384C472.107 347.389 486.398 303.363 486.398 256C486.398 128.754 383.246 25.5995 255.997 25.5995C128.754 25.5995 25.5995 128.754 25.5995 256C25.5995 303.365 39.8904 347.389 64.3985 384C95.3172 337.81 142.496 303.422 197.747 289.029C171.07 270.542 153.599 239.713 153.599 204.798C153.599 148.245 199.447 102.398 256 102.398C312.553 102.398 358.401 148.245 358.401 204.798C358.401 239.71 340.927 270.542 314.253 289.026C369.501 303.422 416.683 337.807 447.602 384ZM431.112 405.739C395.184 346.66 330.202 307.199 256.003 307.199C181.8 307.199 116.816 346.66 80.8885 405.742C123.145 455.112 185.918 486.401 256 486.401C326.082 486.401 388.855 455.109 431.112 405.739ZM256 281.599C298.416 281.599 332.801 247.217 332.801 204.798C332.801 162.382 298.419 127.997 256 127.997C213.581 127.997 179.199 162.385 179.199 204.801C179.199 247.217 213.584 281.599 256 281.599Z" fill="white"/>
</g>
<defs>
<clipPath id="clip0_272_2446">
<rect width="512" height="512" fill="white"/>
</clipPath>
</defs>
</svg>
